%TF.GenerationSoftware,KiCad,Pcbnew,6.0.6-3a73a75311~116~ubuntu20.04.1*%
%TF.CreationDate,2022-07-24T23:56:34-04:00*%
%TF.ProjectId,flight_controller,666c6967-6874-45f6-936f-6e74726f6c6c,rev?*%
%TF.SameCoordinates,Original*%
%TF.FileFunction,Copper,L1,Top*%
%TF.FilePolarity,Positive*%
%FSLAX46Y46*%
G04 Gerber Fmt 4.6, Leading zero omitted, Abs format (unit mm)*
G04 Created by KiCad (PCBNEW 6.0.6-3a73a75311~116~ubuntu20.04.1) date 2022-07-24 23:56:34*
%MOMM*%
%LPD*%
G01*
G04 APERTURE LIST*
%TA.AperFunction,ComponentPad*%
%ADD10R,1.700000X1.700000*%
%TD*%
%TA.AperFunction,ComponentPad*%
%ADD11O,1.700000X1.700000*%
%TD*%
%TA.AperFunction,ComponentPad*%
%ADD12C,1.524000*%
%TD*%
%TA.AperFunction,ComponentPad*%
%ADD13R,1.600000X1.600000*%
%TD*%
%TA.AperFunction,ComponentPad*%
%ADD14C,1.600000*%
%TD*%
%TA.AperFunction,ComponentPad*%
%ADD15O,1.600000X1.600000*%
%TD*%
%TA.AperFunction,ViaPad*%
%ADD16C,0.800000*%
%TD*%
%TA.AperFunction,ViaPad*%
%ADD17C,1.500000*%
%TD*%
%TA.AperFunction,Conductor*%
%ADD18C,0.250000*%
%TD*%
%TA.AperFunction,Conductor*%
%ADD19C,0.750000*%
%TD*%
G04 APERTURE END LIST*
D10*
%TO.P,J7,1,Pin_1*%
%TO.N,GND*%
X250190000Y-105425000D03*
D11*
%TO.P,J7,2,Pin_2*%
%TO.N,5V_VIN*%
X250190000Y-107965000D03*
%TO.P,J7,3,Pin_3*%
%TO.N,iA6b_motors*%
X250190000Y-110505000D03*
%TD*%
D10*
%TO.P,J5,1,Pin_1*%
%TO.N,MOTOR_BR*%
X109205000Y-127705000D03*
D11*
%TO.P,J5,2,Pin_2*%
%TO.N,VIN_BR*%
X106665000Y-127705000D03*
%TO.P,J5,3,Pin_3*%
%TO.N,GND*%
X104125000Y-127705000D03*
%TD*%
D12*
%TO.P,A1,1,VIN*%
%TO.N,3.3V*%
X194310000Y-115570000D03*
%TO.P,A1,2,3VO*%
%TO.N,unconnected-(A1-Pad2)*%
X196850000Y-115570000D03*
%TO.P,A1,3,GND*%
%TO.N,GND*%
X199390000Y-115570000D03*
%TO.P,A1,4,SDA*%
%TO.N,Net-(A1-Pad4)*%
X201930000Y-115570000D03*
%TO.P,A1,5,SCL*%
%TO.N,Net-(A1-Pad5)*%
X204470000Y-115570000D03*
%TO.P,A1,6,RST*%
%TO.N,unconnected-(A1-Pad6)*%
X207010000Y-115570000D03*
%TO.P,A1,7,ADR*%
%TO.N,unconnected-(A1-Pad7)*%
X204470000Y-97790000D03*
%TO.P,A1,8,INT*%
%TO.N,unconnected-(A1-Pad8)*%
X201930000Y-97790000D03*
%TO.P,A1,9,PS1*%
%TO.N,unconnected-(A1-Pad9)*%
X199390000Y-97790000D03*
%TO.P,A1,10,PS0*%
%TO.N,unconnected-(A1-Pad10)*%
X196850000Y-97790000D03*
%TD*%
D13*
%TO.P,U1,1,GND*%
%TO.N,GND*%
X101735000Y-114950000D03*
D14*
%TO.P,U1,2,0_RX1_MOSI1_TOUCH*%
%TO.N,unconnected-(U1-Pad2)*%
X104275000Y-114950000D03*
%TO.P,U1,3,1_TX1_MISO1_TOUCH*%
%TO.N,unconnected-(U1-Pad3)*%
X106815000Y-114950000D03*
%TO.P,U1,4,2_PWM*%
%TO.N,unconnected-(U1-Pad4)*%
X109355000Y-114950000D03*
%TO.P,U1,5,3_PWM_CAN0TX_SCL2*%
%TO.N,unconnected-(U1-Pad5)*%
X111895000Y-114950000D03*
%TO.P,U1,6,4_PWM_CAN0RX_SDA2*%
%TO.N,unconnected-(U1-Pad6)*%
X114435000Y-114950000D03*
%TO.P,U1,7,5_PWM_TX1_MISO1*%
%TO.N,unconnected-(U1-Pad7)*%
X116975000Y-114950000D03*
%TO.P,U1,8,6_PWM*%
%TO.N,unconnected-(U1-Pad8)*%
X119515000Y-114950000D03*
%TO.P,U1,9,7_RX3_MISO0_SCL0*%
%TO.N,unconnected-(U1-Pad9)*%
X122055000Y-114950000D03*
%TO.P,U1,10,8_TX3_MISO0_SDA0*%
%TO.N,unconnected-(U1-Pad10)*%
X124595000Y-114950000D03*
%TO.P,U1,11,9_PWM_RX2_CS0*%
%TO.N,unconnected-(U1-Pad11)*%
X127135000Y-114950000D03*
%TO.P,U1,12,10_PWM_TX2_CS0*%
%TO.N,unconnected-(U1-Pad12)*%
X129675000Y-114950000D03*
%TO.P,U1,13,11_MOSI0*%
%TO.N,unconnected-(U1-Pad13)*%
X132215000Y-114950000D03*
%TO.P,U1,14,12_MISO0*%
%TO.N,unconnected-(U1-Pad14)*%
X134755000Y-114950000D03*
%TO.P,U1,15,3.3V*%
%TO.N,3.3V*%
X137295000Y-114950000D03*
%TO.P,U1,16,24*%
%TO.N,unconnected-(U1-Pad16)*%
X139835000Y-114950000D03*
%TO.P,U1,17,25*%
%TO.N,unconnected-(U1-Pad17)*%
X142375000Y-114950000D03*
%TO.P,U1,18,26_TX1*%
%TO.N,unconnected-(U1-Pad18)*%
X144915000Y-114950000D03*
%TO.P,U1,19,27_RX1*%
%TO.N,unconnected-(U1-Pad19)*%
X147455000Y-114950000D03*
%TO.P,U1,20,28*%
%TO.N,unconnected-(U1-Pad20)*%
X149995000Y-114950000D03*
%TO.P,U1,21,29_PWM_CAN0TX_TOUCH*%
%TO.N,unconnected-(U1-Pad21)*%
X152535000Y-114950000D03*
%TO.P,U1,22,30_PWM_CAN0RX_TOUCH*%
%TO.N,unconnected-(U1-Pad22)*%
X155075000Y-114950000D03*
%TO.P,U1,23,31_A12_RX4_CS1*%
%TO.N,RX4*%
X157615000Y-114950000D03*
%TO.P,U1,24,32_A13_TX4_SCK1*%
%TO.N,TX4*%
X160155000Y-114950000D03*
%TO.P,U1,30,33_A14_TX5_CAN1TX_SCL0*%
%TO.N,TX5*%
X160155000Y-99710000D03*
%TO.P,U1,31,34_A15_RX5_CAN1RX_SDA0*%
%TO.N,RX5*%
X157615000Y-99710000D03*
%TO.P,U1,32,35_A16_PWM*%
%TO.N,unconnected-(U1-Pad32)*%
X155075000Y-99710000D03*
%TO.P,U1,33,36_A17_PWM*%
%TO.N,unconnected-(U1-Pad33)*%
X152535000Y-99710000D03*
%TO.P,U1,34,37_A18_PWM_SCL1*%
%TO.N,unconnected-(U1-Pad34)*%
X149995000Y-99710000D03*
%TO.P,U1,35,38_A19_PWM_SDA1*%
%TO.N,unconnected-(U1-Pad35)*%
X147455000Y-99710000D03*
%TO.P,U1,36,39_A20*%
%TO.N,unconnected-(U1-Pad36)*%
X144915000Y-99710000D03*
%TO.P,U1,37,A21_DAC0*%
%TO.N,unconnected-(U1-Pad37)*%
X142375000Y-99710000D03*
%TO.P,U1,38,A22_DAC1*%
%TO.N,unconnected-(U1-Pad38)*%
X139835000Y-99710000D03*
%TO.P,U1,39,GND*%
%TO.N,GND*%
X137295000Y-99710000D03*
%TO.P,U1,40,13_SCK0_LED*%
%TO.N,unconnected-(U1-Pad40)*%
X134755000Y-99710000D03*
%TO.P,U1,41,14_A0_PWM_SCK0*%
%TO.N,unconnected-(U1-Pad41)*%
X132215000Y-99710000D03*
%TO.P,U1,42,15_A1_CS0_TOUCH*%
%TO.N,unconnected-(U1-Pad42)*%
X129675000Y-99710000D03*
%TO.P,U1,43,16_A2_SCL0_TOUCH*%
%TO.N,unconnected-(U1-Pad43)*%
X127135000Y-99710000D03*
%TO.P,U1,44,17_A3_SDA0_TOUCH*%
%TO.N,unconnected-(U1-Pad44)*%
X124595000Y-99710000D03*
%TO.P,U1,45,18_A4_SDA0_TOUCH*%
%TO.N,Net-(A1-Pad4)*%
X122055000Y-99710000D03*
%TO.P,U1,46,19_A5_SCL0_TOUCH*%
%TO.N,Net-(A1-Pad5)*%
X119515000Y-99710000D03*
%TO.P,U1,47,20_A6_PWM_CS0_SCK1*%
%TO.N,A6*%
X116975000Y-99710000D03*
%TO.P,U1,48,21_A7_PWM_CS0_SCK1*%
%TO.N,A7*%
X114435000Y-99710000D03*
%TO.P,U1,49,22_A8_PWM_TOUCH*%
%TO.N,A8*%
X111895000Y-99710000D03*
%TO.P,U1,50,23_A9_PWM_TOUCH*%
%TO.N,A9*%
X109355000Y-99710000D03*
%TO.P,U1,51,3.3V*%
%TO.N,unconnected-(U1-Pad51)*%
X106815000Y-99710000D03*
%TO.P,U1,52,AGND*%
%TO.N,unconnected-(U1-Pad52)*%
X104275000Y-99710000D03*
%TO.P,U1,53,VIN*%
%TO.N,5V_VIN*%
X101735000Y-99710000D03*
%TD*%
D10*
%TO.P,J3,1,Pin_1*%
%TO.N,MOTOR_BL*%
X104155000Y-88195000D03*
D11*
%TO.P,J3,2,Pin_2*%
%TO.N,VIN_BL*%
X106695000Y-88195000D03*
%TO.P,J3,3,Pin_3*%
%TO.N,GND*%
X109235000Y-88195000D03*
%TD*%
D12*
%TO.P,U2,1,LV1*%
%TO.N,A6*%
X181610000Y-116840000D03*
%TO.P,U2,2,LV2*%
%TO.N,A7*%
X179070000Y-116840000D03*
%TO.P,U2,3,LV*%
%TO.N,3.3V*%
X176530000Y-116840000D03*
%TO.P,U2,4,GND*%
%TO.N,GND*%
X173990000Y-116840000D03*
%TO.P,U2,5,LV3*%
%TO.N,A8*%
X171450000Y-116840000D03*
%TO.P,U2,6,LV4*%
%TO.N,A9*%
X168910000Y-116840000D03*
%TO.P,U2,7,HV4*%
%TO.N,MOTOR_FL*%
X168910000Y-127000000D03*
%TO.P,U2,8,HV3*%
%TO.N,MOTOR_BL*%
X171450000Y-127000000D03*
%TO.P,U2,9,GND*%
%TO.N,GND*%
X173990000Y-127000000D03*
%TO.P,U2,10,HV*%
%TO.N,5V_VIN*%
X176530000Y-127000000D03*
%TO.P,U2,11,HV2*%
%TO.N,MOTOR_FR*%
X179070000Y-127000000D03*
%TO.P,U2,12,HV1*%
%TO.N,MOTOR_BR*%
X181610000Y-127000000D03*
%TD*%
D14*
%TO.P,R2,1*%
%TO.N,Net-(A1-Pad4)*%
X142240000Y-93980000D03*
D15*
%TO.P,R2,2*%
%TO.N,3.3V*%
X127000000Y-93980000D03*
%TD*%
D10*
%TO.P,J2,1,Pin_1*%
%TO.N,MOTOR_FL*%
X231155000Y-88195000D03*
D11*
%TO.P,J2,2,Pin_2*%
%TO.N,VIN_FL*%
X233695000Y-88195000D03*
%TO.P,J2,3,Pin_3*%
%TO.N,GND*%
X236235000Y-88195000D03*
%TD*%
D10*
%TO.P,J4,1,Pin_1*%
%TO.N,MOTOR_FR*%
X236205000Y-127705000D03*
D11*
%TO.P,J4,2,Pin_2*%
%TO.N,VIN_FR*%
X233665000Y-127705000D03*
%TO.P,J4,3,Pin_3*%
%TO.N,GND*%
X231125000Y-127705000D03*
%TD*%
D10*
%TO.P,J1,1,Pin_1*%
%TO.N,VIN_FR*%
X213350000Y-88895000D03*
D11*
%TO.P,J1,2,Pin_2*%
%TO.N,5V_VIN*%
X213350000Y-91435000D03*
%TO.P,J1,3,Pin_3*%
%TO.N,VIN_FL*%
X210810000Y-88895000D03*
%TO.P,J1,4,Pin_4*%
%TO.N,5V_VIN*%
X210810000Y-91435000D03*
%TO.P,J1,5,Pin_5*%
%TO.N,VIN_BL*%
X208270000Y-88895000D03*
%TO.P,J1,6,Pin_6*%
%TO.N,5V_VIN*%
X208270000Y-91435000D03*
%TO.P,J1,7,Pin_7*%
%TO.N,VIN_BR*%
X205730000Y-88895000D03*
%TO.P,J1,8,Pin_8*%
%TO.N,5V_VIN*%
X205730000Y-91435000D03*
%TD*%
D12*
%TO.P,U3,1,LV1*%
%TO.N,RX4*%
X181610000Y-88900000D03*
%TO.P,U3,2,LV2*%
%TO.N,unconnected-(U3-Pad2)*%
X179070000Y-88900000D03*
%TO.P,U3,3,LV*%
%TO.N,3.3V*%
X176530000Y-88900000D03*
%TO.P,U3,4,GND*%
%TO.N,GND*%
X173990000Y-88900000D03*
%TO.P,U3,5,LV3*%
%TO.N,RX5*%
X171450000Y-88900000D03*
%TO.P,U3,6,LV4*%
%TO.N,TX5*%
X168910000Y-88900000D03*
%TO.P,U3,7,HV4*%
%TO.N,GPS_RX*%
X168910000Y-99060000D03*
%TO.P,U3,8,HV3*%
%TO.N,GPS_TX*%
X171450000Y-99060000D03*
%TO.P,U3,9,GND*%
%TO.N,GND*%
X173990000Y-99060000D03*
%TO.P,U3,10,HV*%
%TO.N,5V_VIN*%
X176530000Y-99060000D03*
%TO.P,U3,11,HV2*%
%TO.N,unconnected-(U3-Pad11)*%
X179070000Y-99060000D03*
%TO.P,U3,12,HV1*%
%TO.N,iA6b_motors*%
X181610000Y-99060000D03*
%TD*%
D10*
%TO.P,J6,1,Pin_1*%
%TO.N,unconnected-(J6-Pad1)*%
X218440000Y-101600000D03*
D11*
%TO.P,J6,2,Pin_2*%
%TO.N,GPS_TX*%
X218440000Y-104140000D03*
%TO.P,J6,3,Pin_3*%
%TO.N,GPS_RX*%
X218440000Y-106680000D03*
%TO.P,J6,4,Pin_4*%
%TO.N,GND*%
X218440000Y-109220000D03*
%TO.P,J6,5,Pin_5*%
%TO.N,5V_VIN*%
X218440000Y-111760000D03*
%TD*%
D14*
%TO.P,R1,1*%
%TO.N,Net-(A1-Pad5)*%
X119380000Y-93980000D03*
D15*
%TO.P,R1,2*%
%TO.N,3.3V*%
X104140000Y-93980000D03*
%TD*%
D16*
%TO.N,3.3V*%
X185420000Y-99060000D03*
X165100000Y-86360000D03*
D17*
%TO.N,5V_VIN*%
X226060000Y-110490000D03*
X179070000Y-95304500D03*
X236220000Y-113030000D03*
X162560000Y-105410000D03*
D16*
%TO.N,MOTOR_FL*%
X228600000Y-101600000D03*
%TO.N,RX4*%
X157480000Y-106680000D03*
X166370000Y-90170000D03*
%TD*%
D18*
%TO.N,3.3V*%
X99060000Y-105410000D02*
X99060000Y-97790000D01*
X104140000Y-110490000D02*
X99060000Y-105410000D01*
X99060000Y-97790000D02*
X102870000Y-93980000D01*
X102870000Y-93980000D02*
X104140000Y-93980000D01*
X137295000Y-114950000D02*
X132835000Y-110490000D01*
X132835000Y-110490000D02*
X104140000Y-110490000D01*
D19*
%TO.N,VIN_BR*%
X205730000Y-88895000D02*
X200645000Y-93980000D01*
X200645000Y-93980000D02*
X170180000Y-93980000D01*
X165100000Y-114300000D02*
X160020000Y-119380000D01*
X111760000Y-119380000D02*
X106665000Y-124475000D01*
X170180000Y-93980000D02*
X165100000Y-99060000D01*
X106665000Y-124475000D02*
X106665000Y-127705000D01*
X165100000Y-99060000D02*
X165100000Y-114300000D01*
X160020000Y-119380000D02*
X111760000Y-119380000D01*
%TO.N,5V_VIN*%
X179070000Y-95304500D02*
X179070000Y-96520000D01*
X179070000Y-96520000D02*
X176530000Y-99060000D01*
D18*
%TO.N,MOTOR_FL*%
X228600000Y-101600000D02*
X228600000Y-121920000D01*
X171450000Y-129540000D02*
X168910000Y-127000000D01*
X228600000Y-121920000D02*
X220980000Y-129540000D01*
X220980000Y-129540000D02*
X171450000Y-129540000D01*
%TO.N,3.3V*%
X193040000Y-115570000D02*
X189230000Y-119380000D01*
X194310000Y-115570000D02*
X193040000Y-115570000D01*
X189230000Y-119380000D02*
X179070000Y-119380000D01*
X179070000Y-119380000D02*
X176530000Y-116840000D01*
X185420000Y-99060000D02*
X176530000Y-107950000D01*
X176530000Y-107950000D02*
X176530000Y-116840000D01*
%TO.N,RX4*%
X181610000Y-88900000D02*
X180340000Y-90170000D01*
X180340000Y-90170000D02*
X166370000Y-90170000D01*
%TO.N,3.3V*%
X176530000Y-87630000D02*
X176530000Y-88900000D01*
D19*
%TO.N,5V_VIN*%
X215900000Y-124460000D02*
X179070000Y-124460000D01*
X179070000Y-124460000D02*
X176530000Y-127000000D01*
X189230000Y-95250000D02*
X179070000Y-95250000D01*
D18*
%TO.N,3.3V*%
X165100000Y-86360000D02*
X175260000Y-86360000D01*
X125160000Y-92140000D02*
X127000000Y-93980000D01*
X116840000Y-92140000D02*
X125160000Y-92140000D01*
X175260000Y-86360000D02*
X176530000Y-87630000D01*
X115000000Y-93980000D02*
X116840000Y-92140000D01*
X104140000Y-93980000D02*
X115000000Y-93980000D01*
%TO.N,Net-(A1-Pad4)*%
X142240000Y-93980000D02*
X141115000Y-95105000D01*
X126660000Y-95105000D02*
X122055000Y-99710000D01*
X141115000Y-95105000D02*
X126660000Y-95105000D01*
%TO.N,Net-(A1-Pad5)*%
X119380000Y-99575000D02*
X119515000Y-99710000D01*
X119380000Y-93980000D02*
X119380000Y-99575000D01*
D19*
%TO.N,VIN_FL*%
X233695000Y-88195000D02*
X231860000Y-86360000D01*
X231860000Y-86360000D02*
X213345000Y-86360000D01*
X213345000Y-86360000D02*
X210810000Y-88895000D01*
%TO.N,5V_VIN*%
X241285000Y-107965000D02*
X236220000Y-113030000D01*
X210810000Y-96510000D02*
X210810000Y-91435000D01*
X213350000Y-91435000D02*
X210810000Y-91435000D01*
X218440000Y-111760000D02*
X218440000Y-121920000D01*
X210810000Y-91435000D02*
X208270000Y-91435000D01*
X223520000Y-106680000D02*
X223520000Y-96520000D01*
X218440000Y-111760000D02*
X223520000Y-106680000D01*
X218435000Y-91435000D02*
X213350000Y-91435000D01*
X218440000Y-121920000D02*
X215900000Y-124460000D01*
X205740000Y-101600000D02*
X210820000Y-96520000D01*
X195580000Y-101600000D02*
X205740000Y-101600000D01*
X250190000Y-107965000D02*
X241285000Y-107965000D01*
X210820000Y-96520000D02*
X210810000Y-96510000D01*
X226060000Y-109220000D02*
X223520000Y-106680000D01*
X107435000Y-105410000D02*
X162560000Y-105410000D01*
X208270000Y-91435000D02*
X205730000Y-91435000D01*
X226060000Y-110490000D02*
X226060000Y-109220000D01*
X223520000Y-96520000D02*
X218435000Y-91435000D01*
X101735000Y-99710000D02*
X107435000Y-105410000D01*
X189230000Y-95250000D02*
X195580000Y-101600000D01*
%TO.N,VIN_BL*%
X205735000Y-86360000D02*
X201930000Y-86360000D01*
X114300000Y-91440000D02*
X116840000Y-88900000D01*
X116840000Y-88900000D02*
X157480000Y-88900000D01*
X208270000Y-88895000D02*
X205735000Y-86360000D01*
X198120000Y-88900000D02*
X195580000Y-91440000D01*
X160020000Y-91440000D02*
X195580000Y-91440000D01*
X157480000Y-88900000D02*
X160020000Y-91440000D01*
X109220000Y-91440000D02*
X114300000Y-91440000D01*
X106680000Y-88210000D02*
X106695000Y-88195000D01*
X109220000Y-91440000D02*
X106680000Y-88900000D01*
X200660000Y-86360000D02*
X198120000Y-88900000D01*
X201930000Y-86360000D02*
X200660000Y-86360000D01*
X106680000Y-88900000D02*
X106680000Y-88210000D01*
%TO.N,VIN_FR*%
X233680000Y-127690000D02*
X233665000Y-127705000D01*
X213350000Y-88895000D02*
X218435000Y-88895000D01*
X233680000Y-104140000D02*
X233680000Y-127690000D01*
X220980000Y-91440000D02*
X233680000Y-104140000D01*
X218435000Y-88895000D02*
X220980000Y-91440000D01*
D18*
%TO.N,RX4*%
X157615000Y-106815000D02*
X157480000Y-106680000D01*
X157615000Y-114950000D02*
X157615000Y-106815000D01*
%TD*%
M02*
