%TF.GenerationSoftware,KiCad,Pcbnew,6.0.6-3a73a75311~116~ubuntu20.04.1*%
%TF.CreationDate,2022-07-09T15:41:22-04:00*%
%TF.ProjectId,flight_controller,666c6967-6874-45f6-936f-6e74726f6c6c,rev?*%
%TF.SameCoordinates,Original*%
%TF.FileFunction,Soldermask,Bot*%
%TF.FilePolarity,Negative*%
%FSLAX46Y46*%
G04 Gerber Fmt 4.6, Leading zero omitted, Abs format (unit mm)*
G04 Created by KiCad (PCBNEW 6.0.6-3a73a75311~116~ubuntu20.04.1) date 2022-07-09 15:41:22*
%MOMM*%
%LPD*%
G01*
G04 APERTURE LIST*
%ADD10R,1.700000X1.700000*%
%ADD11O,1.700000X1.700000*%
%ADD12C,1.524000*%
%ADD13R,1.600000X1.600000*%
%ADD14C,1.600000*%
%ADD15O,1.600000X1.600000*%
G04 APERTURE END LIST*
D10*
%TO.C,J7*%
X250190000Y-105425000D03*
D11*
X250190000Y-107965000D03*
X250190000Y-110505000D03*
%TD*%
D10*
%TO.C,J5*%
X109205000Y-127705000D03*
D11*
X106665000Y-127705000D03*
X104125000Y-127705000D03*
%TD*%
D12*
%TO.C,A1*%
X194310000Y-115570000D03*
X196850000Y-115570000D03*
X199390000Y-115570000D03*
X201930000Y-115570000D03*
X204470000Y-115570000D03*
X207010000Y-115570000D03*
X204470000Y-97790000D03*
X201930000Y-97790000D03*
X199390000Y-97790000D03*
X196850000Y-97790000D03*
%TD*%
D13*
%TO.C,U1*%
X101735000Y-114950000D03*
D14*
X104275000Y-114950000D03*
X106815000Y-114950000D03*
X109355000Y-114950000D03*
X111895000Y-114950000D03*
X114435000Y-114950000D03*
X116975000Y-114950000D03*
X119515000Y-114950000D03*
X122055000Y-114950000D03*
X124595000Y-114950000D03*
X127135000Y-114950000D03*
X129675000Y-114950000D03*
X132215000Y-114950000D03*
X134755000Y-114950000D03*
X137295000Y-114950000D03*
X139835000Y-114950000D03*
X142375000Y-114950000D03*
X144915000Y-114950000D03*
X147455000Y-114950000D03*
X149995000Y-114950000D03*
X152535000Y-114950000D03*
X155075000Y-114950000D03*
X157615000Y-114950000D03*
X160155000Y-114950000D03*
X160155000Y-99710000D03*
X157615000Y-99710000D03*
X155075000Y-99710000D03*
X152535000Y-99710000D03*
X149995000Y-99710000D03*
X147455000Y-99710000D03*
X144915000Y-99710000D03*
X142375000Y-99710000D03*
X139835000Y-99710000D03*
X137295000Y-99710000D03*
X134755000Y-99710000D03*
X132215000Y-99710000D03*
X129675000Y-99710000D03*
X127135000Y-99710000D03*
X124595000Y-99710000D03*
X122055000Y-99710000D03*
X119515000Y-99710000D03*
X116975000Y-99710000D03*
X114435000Y-99710000D03*
X111895000Y-99710000D03*
X109355000Y-99710000D03*
X106815000Y-99710000D03*
X104275000Y-99710000D03*
X101735000Y-99710000D03*
%TD*%
D10*
%TO.C,J3*%
X104155000Y-88195000D03*
D11*
X106695000Y-88195000D03*
X109235000Y-88195000D03*
%TD*%
D12*
%TO.C,U2*%
X181610000Y-115570000D03*
X179070000Y-115570000D03*
X176530000Y-115570000D03*
X173990000Y-115570000D03*
X171450000Y-115570000D03*
X168910000Y-115570000D03*
X181610000Y-128270000D03*
X179070000Y-128270000D03*
X176530000Y-128270000D03*
X173990000Y-128270000D03*
X171450000Y-128270000D03*
X168910000Y-128270000D03*
%TD*%
D14*
%TO.C,R2*%
X142240000Y-93980000D03*
D15*
X127000000Y-93980000D03*
%TD*%
D10*
%TO.C,J2*%
X231155000Y-88195000D03*
D11*
X233695000Y-88195000D03*
X236235000Y-88195000D03*
%TD*%
D10*
%TO.C,J4*%
X236205000Y-127705000D03*
D11*
X233665000Y-127705000D03*
X231125000Y-127705000D03*
%TD*%
D10*
%TO.C,J1*%
X213350000Y-88895000D03*
D11*
X213350000Y-91435000D03*
X210810000Y-88895000D03*
X210810000Y-91435000D03*
X208270000Y-88895000D03*
X208270000Y-91435000D03*
X205730000Y-88895000D03*
X205730000Y-91435000D03*
%TD*%
D12*
%TO.C,U3*%
X181610000Y-87630000D03*
X179070000Y-87630000D03*
X176530000Y-87630000D03*
X173990000Y-87630000D03*
X171450000Y-87630000D03*
X168910000Y-87630000D03*
X181610000Y-100330000D03*
X179070000Y-100330000D03*
X176530000Y-100330000D03*
X173990000Y-100330000D03*
X171450000Y-100330000D03*
X168910000Y-100330000D03*
%TD*%
D10*
%TO.C,J6*%
X218440000Y-101600000D03*
D11*
X218440000Y-104140000D03*
X218440000Y-106680000D03*
X218440000Y-109220000D03*
X218440000Y-111760000D03*
%TD*%
D14*
%TO.C,R1*%
X119380000Y-93980000D03*
D15*
X104140000Y-93980000D03*
%TD*%
M02*
