M48
; DRILL file {KiCad 6.0.6-3a73a75311~116~ubuntu20.04.1} date Sat 09 Jul 2022 03:41:16 PM EDT
; FORMAT={-:-/ absolute / inch / decimal}
; #@! TF.CreationDate,2022-07-09T15:41:16-04:00
; #@! TF.GenerationSoftware,Kicad,Pcbnew,6.0.6-3a73a75311~116~ubuntu20.04.1
; #@! TF.FileFunction,Plated,1,2,PTH
FMAT,2
INCH
; #@! TA.AperFunction,Plated,PTH,ViaDrill
T1C0.0157
; #@! TA.AperFunction,Plated,PTH,ViaDrill
T2C0.0295
; #@! TA.AperFunction,Plated,PTH,ComponentDrill
T3C0.0300
; #@! TA.AperFunction,Plated,PTH,ComponentDrill
T4C0.0315
; #@! TA.AperFunction,Plated,PTH,ComponentDrill
T5C0.0394
; #@! TA.AperFunction,Plated,PTH,ComponentDrill
T6C0.0433
%
G90
G05
T1
X6.2Y-4.2
X6.5Y-3.4
X6.55Y-3.55
X9.0Y-4.0
T2
X6.4Y-4.15
X6.6Y-4.15
X8.9Y-4.35
X9.3Y-4.45
T3
X6.65Y-3.45
X6.65Y-3.95
X6.65Y-4.55
X6.65Y-5.05
X6.75Y-3.45
X6.75Y-3.95
X6.75Y-4.55
X6.75Y-5.05
X6.85Y-3.45
X6.85Y-3.95
X6.85Y-4.55
X6.85Y-5.05
X6.95Y-3.45
X6.95Y-3.95
X6.95Y-4.55
X6.95Y-5.05
X7.05Y-3.45
X7.05Y-3.95
X7.05Y-4.55
X7.05Y-5.05
X7.15Y-3.45
X7.15Y-3.95
X7.15Y-4.55
X7.15Y-5.05
X7.65Y-4.55
X7.75Y-3.85
X7.75Y-4.55
X7.85Y-3.85
X7.85Y-4.55
X7.95Y-3.85
X7.95Y-4.55
X8.05Y-3.85
X8.05Y-4.55
X8.15Y-4.55
T4
X4.1Y-3.7
X4.7Y-3.7
X5.0Y-3.7
X5.6Y-3.7
T5
X4.0994Y-5.0278
X4.1006Y-3.4722
X4.1994Y-5.0278
X4.2006Y-3.4722
X4.2994Y-5.0278
X4.3006Y-3.4722
X8.0996Y-3.4998
X8.0996Y-3.5998
X8.1996Y-3.4998
X8.1996Y-3.5998
X8.2996Y-3.4998
X8.2996Y-3.5998
X8.3996Y-3.4998
X8.3996Y-3.5998
X8.6Y-4.0
X8.6Y-4.1
X8.6Y-4.2
X8.6Y-4.3
X8.6Y-4.4
X9.0994Y-5.0278
X9.1006Y-3.4722
X9.1994Y-5.0278
X9.2006Y-3.4722
X9.2994Y-5.0278
X9.3006Y-3.4722
X9.85Y-4.1506
X9.85Y-4.2506
X9.85Y-4.3506
T6
X4.0053Y-3.9256
X4.0053Y-4.5256
X4.1053Y-3.9256
X4.1053Y-4.5256
X4.2053Y-3.9256
X4.2053Y-4.5256
X4.3053Y-3.9256
X4.3053Y-4.5256
X4.4053Y-3.9256
X4.4053Y-4.5256
X4.5053Y-3.9256
X4.5053Y-4.5256
X4.6053Y-3.9256
X4.6053Y-4.5256
X4.7053Y-3.9256
X4.7053Y-4.5256
X4.8053Y-3.9256
X4.8053Y-4.5256
X4.9053Y-3.9256
X4.9053Y-4.5256
X5.0053Y-3.9256
X5.0053Y-4.5256
X5.1053Y-3.9256
X5.1053Y-4.5256
X5.2053Y-3.9256
X5.2053Y-4.5256
X5.3053Y-3.9256
X5.3053Y-4.5256
X5.4053Y-3.9256
X5.4053Y-4.5256
X5.5053Y-3.9256
X5.5053Y-4.5256
X5.6053Y-3.9256
X5.6053Y-4.5256
X5.7053Y-3.9256
X5.7053Y-4.5256
X5.8053Y-3.9256
X5.8053Y-4.5256
X5.9053Y-3.9256
X5.9053Y-4.5256
X6.0053Y-3.9256
X6.0053Y-4.5256
X6.1053Y-3.9256
X6.1053Y-4.5256
X6.2053Y-3.9256
X6.2053Y-4.5256
X6.3053Y-3.9256
X6.3053Y-4.5256
T0
M30
