%TF.GenerationSoftware,KiCad,Pcbnew,6.0.6-3a73a75311~116~ubuntu20.04.1*%
%TF.CreationDate,2022-07-24T23:56:34-04:00*%
%TF.ProjectId,flight_controller,666c6967-6874-45f6-936f-6e74726f6c6c,rev?*%
%TF.SameCoordinates,Original*%
%TF.FileFunction,Legend,Top*%
%TF.FilePolarity,Positive*%
%FSLAX46Y46*%
G04 Gerber Fmt 4.6, Leading zero omitted, Abs format (unit mm)*
G04 Created by KiCad (PCBNEW 6.0.6-3a73a75311~116~ubuntu20.04.1) date 2022-07-24 23:56:34*
%MOMM*%
%LPD*%
G01*
G04 APERTURE LIST*
%ADD10C,0.150000*%
%ADD11C,0.300000*%
%ADD12C,0.120000*%
%ADD13C,0.100000*%
G04 APERTURE END LIST*
D10*
X201930000Y-117475000D02*
X215900000Y-117475000D01*
X215900000Y-117475000D02*
X215900000Y-131445000D01*
X215900000Y-131445000D02*
X201930000Y-131445000D01*
X201930000Y-131445000D02*
X201930000Y-117475000D01*
X217170000Y-92710000D02*
X245110000Y-92710000D01*
X245110000Y-92710000D02*
X245110000Y-119380000D01*
X245110000Y-119380000D02*
X217170000Y-119380000D01*
X217170000Y-119380000D02*
X217170000Y-92710000D01*
D11*
X109663571Y-84482857D02*
X109449285Y-84411428D01*
X109092142Y-84411428D01*
X108949285Y-84482857D01*
X108877857Y-84554285D01*
X108806428Y-84697142D01*
X108806428Y-84840000D01*
X108877857Y-84982857D01*
X108949285Y-85054285D01*
X109092142Y-85125714D01*
X109377857Y-85197142D01*
X109520714Y-85268571D01*
X109592142Y-85340000D01*
X109663571Y-85482857D01*
X109663571Y-85625714D01*
X109592142Y-85768571D01*
X109520714Y-85840000D01*
X109377857Y-85911428D01*
X109020714Y-85911428D01*
X108806428Y-85840000D01*
X101715714Y-124352857D02*
X101930000Y-124424285D01*
X102001428Y-124495714D01*
X102072857Y-124638571D01*
X102072857Y-124852857D01*
X102001428Y-124995714D01*
X101930000Y-125067142D01*
X101787142Y-125138571D01*
X101215714Y-125138571D01*
X101215714Y-123638571D01*
X101715714Y-123638571D01*
X101858571Y-123710000D01*
X101930000Y-123781428D01*
X102001428Y-123924285D01*
X102001428Y-124067142D01*
X101930000Y-124210000D01*
X101858571Y-124281428D01*
X101715714Y-124352857D01*
X101215714Y-124352857D01*
X103572857Y-125138571D02*
X103072857Y-124424285D01*
X102715714Y-125138571D02*
X102715714Y-123638571D01*
X103287142Y-123638571D01*
X103430000Y-123710000D01*
X103501428Y-123781428D01*
X103572857Y-123924285D01*
X103572857Y-124138571D01*
X103501428Y-124281428D01*
X103430000Y-124352857D01*
X103287142Y-124424285D01*
X102715714Y-124424285D01*
X105358571Y-125138571D02*
X105358571Y-123638571D01*
X105858571Y-124710000D01*
X106358571Y-123638571D01*
X106358571Y-125138571D01*
X107358571Y-123638571D02*
X107644285Y-123638571D01*
X107787142Y-123710000D01*
X107930000Y-123852857D01*
X108001428Y-124138571D01*
X108001428Y-124638571D01*
X107930000Y-124924285D01*
X107787142Y-125067142D01*
X107644285Y-125138571D01*
X107358571Y-125138571D01*
X107215714Y-125067142D01*
X107072857Y-124924285D01*
X107001428Y-124638571D01*
X107001428Y-124138571D01*
X107072857Y-123852857D01*
X107215714Y-123710000D01*
X107358571Y-123638571D01*
X108430000Y-123638571D02*
X109287142Y-123638571D01*
X108858571Y-125138571D02*
X108858571Y-123638571D01*
X110072857Y-123638571D02*
X110358571Y-123638571D01*
X110501428Y-123710000D01*
X110644285Y-123852857D01*
X110715714Y-124138571D01*
X110715714Y-124638571D01*
X110644285Y-124924285D01*
X110501428Y-125067142D01*
X110358571Y-125138571D01*
X110072857Y-125138571D01*
X109930000Y-125067142D01*
X109787142Y-124924285D01*
X109715714Y-124638571D01*
X109715714Y-124138571D01*
X109787142Y-123852857D01*
X109930000Y-123710000D01*
X110072857Y-123638571D01*
X112215714Y-125138571D02*
X111715714Y-124424285D01*
X111358571Y-125138571D02*
X111358571Y-123638571D01*
X111930000Y-123638571D01*
X112072857Y-123710000D01*
X112144285Y-123781428D01*
X112215714Y-123924285D01*
X112215714Y-124138571D01*
X112144285Y-124281428D01*
X112072857Y-124352857D01*
X111930000Y-124424285D01*
X111358571Y-124424285D01*
X103583571Y-85197142D02*
X104726428Y-85197142D01*
X238394285Y-91547142D02*
X238894285Y-91547142D01*
X238894285Y-90761428D02*
X238894285Y-92261428D01*
X238180000Y-92261428D01*
X236894285Y-90761428D02*
X237608571Y-90761428D01*
X237608571Y-92261428D01*
X235251428Y-90761428D02*
X235251428Y-92261428D01*
X234751428Y-91190000D01*
X234251428Y-92261428D01*
X234251428Y-90761428D01*
X233251428Y-92261428D02*
X232965714Y-92261428D01*
X232822857Y-92190000D01*
X232680000Y-92047142D01*
X232608571Y-91761428D01*
X232608571Y-91261428D01*
X232680000Y-90975714D01*
X232822857Y-90832857D01*
X232965714Y-90761428D01*
X233251428Y-90761428D01*
X233394285Y-90832857D01*
X233537142Y-90975714D01*
X233608571Y-91261428D01*
X233608571Y-91761428D01*
X233537142Y-92047142D01*
X233394285Y-92190000D01*
X233251428Y-92261428D01*
X232180000Y-92261428D02*
X231322857Y-92261428D01*
X231751428Y-90761428D02*
X231751428Y-92261428D01*
X230537142Y-92261428D02*
X230251428Y-92261428D01*
X230108571Y-92190000D01*
X229965714Y-92047142D01*
X229894285Y-91761428D01*
X229894285Y-91261428D01*
X229965714Y-90975714D01*
X230108571Y-90832857D01*
X230251428Y-90761428D01*
X230537142Y-90761428D01*
X230680000Y-90832857D01*
X230822857Y-90975714D01*
X230894285Y-91261428D01*
X230894285Y-91761428D01*
X230822857Y-92047142D01*
X230680000Y-92190000D01*
X230537142Y-92261428D01*
X228394285Y-90761428D02*
X228894285Y-91475714D01*
X229251428Y-90761428D02*
X229251428Y-92261428D01*
X228680000Y-92261428D01*
X228537142Y-92190000D01*
X228465714Y-92118571D01*
X228394285Y-91975714D01*
X228394285Y-91761428D01*
X228465714Y-91618571D01*
X228537142Y-91547142D01*
X228680000Y-91475714D01*
X229251428Y-91475714D01*
X216452142Y-88792857D02*
X216952142Y-88792857D01*
X217166428Y-89578571D02*
X216452142Y-89578571D01*
X216452142Y-88078571D01*
X217166428Y-88078571D01*
X217737857Y-89507142D02*
X217952142Y-89578571D01*
X218309285Y-89578571D01*
X218452142Y-89507142D01*
X218523571Y-89435714D01*
X218595000Y-89292857D01*
X218595000Y-89150000D01*
X218523571Y-89007142D01*
X218452142Y-88935714D01*
X218309285Y-88864285D01*
X218023571Y-88792857D01*
X217880714Y-88721428D01*
X217809285Y-88650000D01*
X217737857Y-88507142D01*
X217737857Y-88364285D01*
X217809285Y-88221428D01*
X217880714Y-88150000D01*
X218023571Y-88078571D01*
X218380714Y-88078571D01*
X218595000Y-88150000D01*
X220095000Y-89435714D02*
X220023571Y-89507142D01*
X219809285Y-89578571D01*
X219666428Y-89578571D01*
X219452142Y-89507142D01*
X219309285Y-89364285D01*
X219237857Y-89221428D01*
X219166428Y-88935714D01*
X219166428Y-88721428D01*
X219237857Y-88435714D01*
X219309285Y-88292857D01*
X219452142Y-88150000D01*
X219666428Y-88078571D01*
X219809285Y-88078571D01*
X220023571Y-88150000D01*
X220095000Y-88221428D01*
X233108571Y-85197142D02*
X234251428Y-85197142D01*
X233680000Y-85768571D02*
X233680000Y-84625714D01*
X206085714Y-94658571D02*
X206085714Y-93158571D01*
X206657142Y-93158571D01*
X206800000Y-93230000D01*
X206871428Y-93301428D01*
X206942857Y-93444285D01*
X206942857Y-93658571D01*
X206871428Y-93801428D01*
X206800000Y-93872857D01*
X206657142Y-93944285D01*
X206085714Y-93944285D01*
X207871428Y-93158571D02*
X208157142Y-93158571D01*
X208300000Y-93230000D01*
X208442857Y-93372857D01*
X208514285Y-93658571D01*
X208514285Y-94158571D01*
X208442857Y-94444285D01*
X208300000Y-94587142D01*
X208157142Y-94658571D01*
X207871428Y-94658571D01*
X207728571Y-94587142D01*
X207585714Y-94444285D01*
X207514285Y-94158571D01*
X207514285Y-93658571D01*
X207585714Y-93372857D01*
X207728571Y-93230000D01*
X207871428Y-93158571D01*
X209014285Y-93158571D02*
X209371428Y-94658571D01*
X209657142Y-93587142D01*
X209942857Y-94658571D01*
X210300000Y-93158571D01*
X210871428Y-93872857D02*
X211371428Y-93872857D01*
X211585714Y-94658571D02*
X210871428Y-94658571D01*
X210871428Y-93158571D01*
X211585714Y-93158571D01*
X213085714Y-94658571D02*
X212585714Y-93944285D01*
X212228571Y-94658571D02*
X212228571Y-93158571D01*
X212800000Y-93158571D01*
X212942857Y-93230000D01*
X213014285Y-93301428D01*
X213085714Y-93444285D01*
X213085714Y-93658571D01*
X213014285Y-93801428D01*
X212942857Y-93872857D01*
X212800000Y-93944285D01*
X212228571Y-93944285D01*
X247221428Y-111097142D02*
X247435714Y-111168571D01*
X247792857Y-111168571D01*
X247935714Y-111097142D01*
X248007142Y-111025714D01*
X248078571Y-110882857D01*
X248078571Y-110740000D01*
X248007142Y-110597142D01*
X247935714Y-110525714D01*
X247792857Y-110454285D01*
X247507142Y-110382857D01*
X247364285Y-110311428D01*
X247292857Y-110240000D01*
X247221428Y-110097142D01*
X247221428Y-109954285D01*
X247292857Y-109811428D01*
X247364285Y-109740000D01*
X247507142Y-109668571D01*
X247864285Y-109668571D01*
X248078571Y-109740000D01*
X207843571Y-122502500D02*
X207700714Y-122431071D01*
X207486428Y-122431071D01*
X207272142Y-122502500D01*
X207129285Y-122645357D01*
X207057857Y-122788214D01*
X206986428Y-123073928D01*
X206986428Y-123288214D01*
X207057857Y-123573928D01*
X207129285Y-123716785D01*
X207272142Y-123859642D01*
X207486428Y-123931071D01*
X207629285Y-123931071D01*
X207843571Y-123859642D01*
X207915000Y-123788214D01*
X207915000Y-123288214D01*
X207629285Y-123288214D01*
X208557857Y-123931071D02*
X208557857Y-122431071D01*
X209129285Y-122431071D01*
X209272142Y-122502500D01*
X209343571Y-122573928D01*
X209415000Y-122716785D01*
X209415000Y-122931071D01*
X209343571Y-123073928D01*
X209272142Y-123145357D01*
X209129285Y-123216785D01*
X208557857Y-123216785D01*
X209986428Y-123859642D02*
X210200714Y-123931071D01*
X210557857Y-123931071D01*
X210700714Y-123859642D01*
X210772142Y-123788214D01*
X210843571Y-123645357D01*
X210843571Y-123502500D01*
X210772142Y-123359642D01*
X210700714Y-123288214D01*
X210557857Y-123216785D01*
X210272142Y-123145357D01*
X210129285Y-123073928D01*
X210057857Y-123002500D01*
X209986428Y-122859642D01*
X209986428Y-122716785D01*
X210057857Y-122573928D01*
X210129285Y-122502500D01*
X210272142Y-122431071D01*
X210629285Y-122431071D01*
X210843571Y-122502500D01*
X207200714Y-125917500D02*
X207915000Y-125917500D01*
X207057857Y-126346071D02*
X207557857Y-124846071D01*
X208057857Y-126346071D01*
X208557857Y-126346071D02*
X208557857Y-124846071D01*
X209415000Y-126346071D01*
X209415000Y-124846071D01*
X209915000Y-124846071D02*
X210772142Y-124846071D01*
X210343571Y-126346071D02*
X210343571Y-124846071D01*
X247078571Y-105517142D02*
X248221428Y-105517142D01*
X230568571Y-130917142D02*
X231711428Y-130917142D01*
X233108571Y-130917142D02*
X234251428Y-130917142D01*
X233680000Y-131488571D02*
X233680000Y-130345714D01*
X108791428Y-131417142D02*
X109005714Y-131488571D01*
X109362857Y-131488571D01*
X109505714Y-131417142D01*
X109577142Y-131345714D01*
X109648571Y-131202857D01*
X109648571Y-131060000D01*
X109577142Y-130917142D01*
X109505714Y-130845714D01*
X109362857Y-130774285D01*
X109077142Y-130702857D01*
X108934285Y-130631428D01*
X108862857Y-130560000D01*
X108791428Y-130417142D01*
X108791428Y-130274285D01*
X108862857Y-130131428D01*
X108934285Y-130060000D01*
X109077142Y-129988571D01*
X109434285Y-129988571D01*
X109648571Y-130060000D01*
X221730000Y-105608571D02*
X221801428Y-105465714D01*
X221801428Y-105251428D01*
X221730000Y-105037142D01*
X221587142Y-104894285D01*
X221444285Y-104822857D01*
X221158571Y-104751428D01*
X220944285Y-104751428D01*
X220658571Y-104822857D01*
X220515714Y-104894285D01*
X220372857Y-105037142D01*
X220301428Y-105251428D01*
X220301428Y-105394285D01*
X220372857Y-105608571D01*
X220444285Y-105680000D01*
X220944285Y-105680000D01*
X220944285Y-105394285D01*
X220301428Y-106322857D02*
X221801428Y-106322857D01*
X221801428Y-106894285D01*
X221730000Y-107037142D01*
X221658571Y-107108571D01*
X221515714Y-107180000D01*
X221301428Y-107180000D01*
X221158571Y-107108571D01*
X221087142Y-107037142D01*
X221015714Y-106894285D01*
X221015714Y-106322857D01*
X220372857Y-107751428D02*
X220301428Y-107965714D01*
X220301428Y-108322857D01*
X220372857Y-108465714D01*
X220444285Y-108537142D01*
X220587142Y-108608571D01*
X220730000Y-108608571D01*
X220872857Y-108537142D01*
X220944285Y-108465714D01*
X221015714Y-108322857D01*
X221087142Y-108037142D01*
X221158571Y-107894285D01*
X221230000Y-107822857D01*
X221372857Y-107751428D01*
X221515714Y-107751428D01*
X221658571Y-107822857D01*
X221730000Y-107894285D01*
X221801428Y-108037142D01*
X221801428Y-108394285D01*
X221730000Y-108608571D01*
X217166428Y-90618571D02*
X216452142Y-90618571D01*
X216380714Y-91332857D01*
X216452142Y-91261428D01*
X216595000Y-91190000D01*
X216952142Y-91190000D01*
X217095000Y-91261428D01*
X217166428Y-91332857D01*
X217237857Y-91475714D01*
X217237857Y-91832857D01*
X217166428Y-91975714D01*
X217095000Y-92047142D01*
X216952142Y-92118571D01*
X216595000Y-92118571D01*
X216452142Y-92047142D01*
X216380714Y-91975714D01*
X217666428Y-90618571D02*
X218166428Y-92118571D01*
X218666428Y-90618571D01*
X236648571Y-84482857D02*
X236434285Y-84411428D01*
X236077142Y-84411428D01*
X235934285Y-84482857D01*
X235862857Y-84554285D01*
X235791428Y-84697142D01*
X235791428Y-84840000D01*
X235862857Y-84982857D01*
X235934285Y-85054285D01*
X236077142Y-85125714D01*
X236362857Y-85197142D01*
X236505714Y-85268571D01*
X236577142Y-85340000D01*
X236648571Y-85482857D01*
X236648571Y-85625714D01*
X236577142Y-85768571D01*
X236505714Y-85840000D01*
X236362857Y-85911428D01*
X236005714Y-85911428D01*
X235791428Y-85840000D01*
X249904285Y-114978571D02*
X249404285Y-114264285D01*
X249047142Y-114978571D02*
X249047142Y-113478571D01*
X249618571Y-113478571D01*
X249761428Y-113550000D01*
X249832857Y-113621428D01*
X249904285Y-113764285D01*
X249904285Y-113978571D01*
X249832857Y-114121428D01*
X249761428Y-114192857D01*
X249618571Y-114264285D01*
X249047142Y-114264285D01*
X251404285Y-114835714D02*
X251332857Y-114907142D01*
X251118571Y-114978571D01*
X250975714Y-114978571D01*
X250761428Y-114907142D01*
X250618571Y-114764285D01*
X250547142Y-114621428D01*
X250475714Y-114335714D01*
X250475714Y-114121428D01*
X250547142Y-113835714D01*
X250618571Y-113692857D01*
X250761428Y-113550000D01*
X250975714Y-113478571D01*
X251118571Y-113478571D01*
X251332857Y-113550000D01*
X251404285Y-113621428D01*
X247078571Y-108057142D02*
X248221428Y-108057142D01*
X247650000Y-108628571D02*
X247650000Y-107485714D01*
X106108571Y-130917142D02*
X107251428Y-130917142D01*
X106680000Y-131488571D02*
X106680000Y-130345714D01*
X111501428Y-91547142D02*
X111287142Y-91475714D01*
X111215714Y-91404285D01*
X111144285Y-91261428D01*
X111144285Y-91047142D01*
X111215714Y-90904285D01*
X111287142Y-90832857D01*
X111430000Y-90761428D01*
X112001428Y-90761428D01*
X112001428Y-92261428D01*
X111501428Y-92261428D01*
X111358571Y-92190000D01*
X111287142Y-92118571D01*
X111215714Y-91975714D01*
X111215714Y-91832857D01*
X111287142Y-91690000D01*
X111358571Y-91618571D01*
X111501428Y-91547142D01*
X112001428Y-91547142D01*
X109787142Y-90761428D02*
X110501428Y-90761428D01*
X110501428Y-92261428D01*
X108144285Y-90761428D02*
X108144285Y-92261428D01*
X107644285Y-91190000D01*
X107144285Y-92261428D01*
X107144285Y-90761428D01*
X106144285Y-92261428D02*
X105858571Y-92261428D01*
X105715714Y-92190000D01*
X105572857Y-92047142D01*
X105501428Y-91761428D01*
X105501428Y-91261428D01*
X105572857Y-90975714D01*
X105715714Y-90832857D01*
X105858571Y-90761428D01*
X106144285Y-90761428D01*
X106287142Y-90832857D01*
X106430000Y-90975714D01*
X106501428Y-91261428D01*
X106501428Y-91761428D01*
X106430000Y-92047142D01*
X106287142Y-92190000D01*
X106144285Y-92261428D01*
X105072857Y-92261428D02*
X104215714Y-92261428D01*
X104644285Y-90761428D02*
X104644285Y-92261428D01*
X103430000Y-92261428D02*
X103144285Y-92261428D01*
X103001428Y-92190000D01*
X102858571Y-92047142D01*
X102787142Y-91761428D01*
X102787142Y-91261428D01*
X102858571Y-90975714D01*
X103001428Y-90832857D01*
X103144285Y-90761428D01*
X103430000Y-90761428D01*
X103572857Y-90832857D01*
X103715714Y-90975714D01*
X103787142Y-91261428D01*
X103787142Y-91761428D01*
X103715714Y-92047142D01*
X103572857Y-92190000D01*
X103430000Y-92261428D01*
X101287142Y-90761428D02*
X101787142Y-91475714D01*
X102144285Y-90761428D02*
X102144285Y-92261428D01*
X101572857Y-92261428D01*
X101430000Y-92190000D01*
X101358571Y-92118571D01*
X101287142Y-91975714D01*
X101287142Y-91761428D01*
X101358571Y-91618571D01*
X101430000Y-91547142D01*
X101572857Y-91475714D01*
X102144285Y-91475714D01*
X103568571Y-130917142D02*
X104711428Y-130917142D01*
X106123571Y-85197142D02*
X107266428Y-85197142D01*
X106695000Y-85768571D02*
X106695000Y-84625714D01*
X235791428Y-131417142D02*
X236005714Y-131488571D01*
X236362857Y-131488571D01*
X236505714Y-131417142D01*
X236577142Y-131345714D01*
X236648571Y-131202857D01*
X236648571Y-131060000D01*
X236577142Y-130917142D01*
X236505714Y-130845714D01*
X236362857Y-130774285D01*
X236077142Y-130702857D01*
X235934285Y-130631428D01*
X235862857Y-130560000D01*
X235791428Y-130417142D01*
X235791428Y-130274285D01*
X235862857Y-130131428D01*
X235934285Y-130060000D01*
X236077142Y-129988571D01*
X236434285Y-129988571D01*
X236648571Y-130060000D01*
X228822857Y-124352857D02*
X228322857Y-124352857D01*
X228322857Y-125138571D02*
X228322857Y-123638571D01*
X229037142Y-123638571D01*
X230465714Y-125138571D02*
X229965714Y-124424285D01*
X229608571Y-125138571D02*
X229608571Y-123638571D01*
X230180000Y-123638571D01*
X230322857Y-123710000D01*
X230394285Y-123781428D01*
X230465714Y-123924285D01*
X230465714Y-124138571D01*
X230394285Y-124281428D01*
X230322857Y-124352857D01*
X230180000Y-124424285D01*
X229608571Y-124424285D01*
X232251428Y-125138571D02*
X232251428Y-123638571D01*
X232751428Y-124710000D01*
X233251428Y-123638571D01*
X233251428Y-125138571D01*
X234251428Y-123638571D02*
X234537142Y-123638571D01*
X234680000Y-123710000D01*
X234822857Y-123852857D01*
X234894285Y-124138571D01*
X234894285Y-124638571D01*
X234822857Y-124924285D01*
X234680000Y-125067142D01*
X234537142Y-125138571D01*
X234251428Y-125138571D01*
X234108571Y-125067142D01*
X233965714Y-124924285D01*
X233894285Y-124638571D01*
X233894285Y-124138571D01*
X233965714Y-123852857D01*
X234108571Y-123710000D01*
X234251428Y-123638571D01*
X235322857Y-123638571D02*
X236180000Y-123638571D01*
X235751428Y-125138571D02*
X235751428Y-123638571D01*
X236965714Y-123638571D02*
X237251428Y-123638571D01*
X237394285Y-123710000D01*
X237537142Y-123852857D01*
X237608571Y-124138571D01*
X237608571Y-124638571D01*
X237537142Y-124924285D01*
X237394285Y-125067142D01*
X237251428Y-125138571D01*
X236965714Y-125138571D01*
X236822857Y-125067142D01*
X236680000Y-124924285D01*
X236608571Y-124638571D01*
X236608571Y-124138571D01*
X236680000Y-123852857D01*
X236822857Y-123710000D01*
X236965714Y-123638571D01*
X239108571Y-125138571D02*
X238608571Y-124424285D01*
X238251428Y-125138571D02*
X238251428Y-123638571D01*
X238822857Y-123638571D01*
X238965714Y-123710000D01*
X239037142Y-123781428D01*
X239108571Y-123924285D01*
X239108571Y-124138571D01*
X239037142Y-124281428D01*
X238965714Y-124352857D01*
X238822857Y-124424285D01*
X238251428Y-124424285D01*
X215328571Y-109327142D02*
X216471428Y-109327142D01*
X215328571Y-111867142D02*
X216471428Y-111867142D01*
X215900000Y-112438571D02*
X215900000Y-111295714D01*
X230568571Y-85197142D02*
X231711428Y-85197142D01*
X215260714Y-107358571D02*
X214760714Y-106644285D01*
X214403571Y-107358571D02*
X214403571Y-105858571D01*
X214975000Y-105858571D01*
X215117857Y-105930000D01*
X215189285Y-106001428D01*
X215260714Y-106144285D01*
X215260714Y-106358571D01*
X215189285Y-106501428D01*
X215117857Y-106572857D01*
X214975000Y-106644285D01*
X214403571Y-106644285D01*
X215760714Y-105858571D02*
X216760714Y-107358571D01*
X216760714Y-105858571D02*
X215760714Y-107358571D01*
X123227142Y-123145357D02*
X122727142Y-123145357D01*
X122727142Y-123931071D02*
X122727142Y-122431071D01*
X123441428Y-122431071D01*
X124227142Y-123931071D02*
X124084285Y-123859642D01*
X124012857Y-123716785D01*
X124012857Y-122431071D01*
X124798571Y-123931071D02*
X124798571Y-122931071D01*
X124798571Y-122431071D02*
X124727142Y-122502500D01*
X124798571Y-122573928D01*
X124870000Y-122502500D01*
X124798571Y-122431071D01*
X124798571Y-122573928D01*
X126155714Y-122931071D02*
X126155714Y-124145357D01*
X126084285Y-124288214D01*
X126012857Y-124359642D01*
X125870000Y-124431071D01*
X125655714Y-124431071D01*
X125512857Y-124359642D01*
X126155714Y-123859642D02*
X126012857Y-123931071D01*
X125727142Y-123931071D01*
X125584285Y-123859642D01*
X125512857Y-123788214D01*
X125441428Y-123645357D01*
X125441428Y-123216785D01*
X125512857Y-123073928D01*
X125584285Y-123002500D01*
X125727142Y-122931071D01*
X126012857Y-122931071D01*
X126155714Y-123002500D01*
X126870000Y-123931071D02*
X126870000Y-122431071D01*
X127512857Y-123931071D02*
X127512857Y-123145357D01*
X127441428Y-123002500D01*
X127298571Y-122931071D01*
X127084285Y-122931071D01*
X126941428Y-123002500D01*
X126870000Y-123073928D01*
X128012857Y-122931071D02*
X128584285Y-122931071D01*
X128227142Y-122431071D02*
X128227142Y-123716785D01*
X128298571Y-123859642D01*
X128441428Y-123931071D01*
X128584285Y-123931071D01*
X131084285Y-123788214D02*
X131012857Y-123859642D01*
X130798571Y-123931071D01*
X130655714Y-123931071D01*
X130441428Y-123859642D01*
X130298571Y-123716785D01*
X130227142Y-123573928D01*
X130155714Y-123288214D01*
X130155714Y-123073928D01*
X130227142Y-122788214D01*
X130298571Y-122645357D01*
X130441428Y-122502500D01*
X130655714Y-122431071D01*
X130798571Y-122431071D01*
X131012857Y-122502500D01*
X131084285Y-122573928D01*
X131941428Y-123931071D02*
X131798571Y-123859642D01*
X131727142Y-123788214D01*
X131655714Y-123645357D01*
X131655714Y-123216785D01*
X131727142Y-123073928D01*
X131798571Y-123002500D01*
X131941428Y-122931071D01*
X132155714Y-122931071D01*
X132298571Y-123002500D01*
X132370000Y-123073928D01*
X132441428Y-123216785D01*
X132441428Y-123645357D01*
X132370000Y-123788214D01*
X132298571Y-123859642D01*
X132155714Y-123931071D01*
X131941428Y-123931071D01*
X133084285Y-122931071D02*
X133084285Y-123931071D01*
X133084285Y-123073928D02*
X133155714Y-123002500D01*
X133298571Y-122931071D01*
X133512857Y-122931071D01*
X133655714Y-123002500D01*
X133727142Y-123145357D01*
X133727142Y-123931071D01*
X134227142Y-122931071D02*
X134798571Y-122931071D01*
X134441428Y-122431071D02*
X134441428Y-123716785D01*
X134512857Y-123859642D01*
X134655714Y-123931071D01*
X134798571Y-123931071D01*
X135298571Y-123931071D02*
X135298571Y-122931071D01*
X135298571Y-123216785D02*
X135370000Y-123073928D01*
X135441428Y-123002500D01*
X135584285Y-122931071D01*
X135727142Y-122931071D01*
X136441428Y-123931071D02*
X136298571Y-123859642D01*
X136227142Y-123788214D01*
X136155714Y-123645357D01*
X136155714Y-123216785D01*
X136227142Y-123073928D01*
X136298571Y-123002500D01*
X136441428Y-122931071D01*
X136655714Y-122931071D01*
X136798571Y-123002500D01*
X136870000Y-123073928D01*
X136941428Y-123216785D01*
X136941428Y-123645357D01*
X136870000Y-123788214D01*
X136798571Y-123859642D01*
X136655714Y-123931071D01*
X136441428Y-123931071D01*
X137798571Y-123931071D02*
X137655714Y-123859642D01*
X137584285Y-123716785D01*
X137584285Y-122431071D01*
X138584285Y-123931071D02*
X138441428Y-123859642D01*
X138370000Y-123716785D01*
X138370000Y-122431071D01*
X139727142Y-123859642D02*
X139584285Y-123931071D01*
X139298571Y-123931071D01*
X139155714Y-123859642D01*
X139084285Y-123716785D01*
X139084285Y-123145357D01*
X139155714Y-123002500D01*
X139298571Y-122931071D01*
X139584285Y-122931071D01*
X139727142Y-123002500D01*
X139798571Y-123145357D01*
X139798571Y-123288214D01*
X139084285Y-123431071D01*
X140441428Y-123931071D02*
X140441428Y-122931071D01*
X140441428Y-123216785D02*
X140512857Y-123073928D01*
X140584285Y-123002500D01*
X140727142Y-122931071D01*
X140870000Y-122931071D01*
X142370000Y-122931071D02*
X142727142Y-123931071D01*
X143084285Y-122931071D01*
X144441428Y-123931071D02*
X143584285Y-123931071D01*
X144012857Y-123931071D02*
X144012857Y-122431071D01*
X143870000Y-122645357D01*
X143727142Y-122788214D01*
X143584285Y-122859642D01*
X145084285Y-123788214D02*
X145155714Y-123859642D01*
X145084285Y-123931071D01*
X145012857Y-123859642D01*
X145084285Y-123788214D01*
X145084285Y-123931071D01*
X146584285Y-123931071D02*
X145727142Y-123931071D01*
X146155714Y-123931071D02*
X146155714Y-122431071D01*
X146012857Y-122645357D01*
X145870000Y-122788214D01*
X145727142Y-122859642D01*
X127584285Y-124846071D02*
X127584285Y-125917500D01*
X127512857Y-126131785D01*
X127370000Y-126274642D01*
X127155714Y-126346071D01*
X127012857Y-126346071D01*
X128941428Y-125346071D02*
X128941428Y-126346071D01*
X128298571Y-125346071D02*
X128298571Y-126131785D01*
X128370000Y-126274642D01*
X128512857Y-126346071D01*
X128727142Y-126346071D01*
X128870000Y-126274642D01*
X128941428Y-126203214D01*
X129584285Y-126274642D02*
X129727142Y-126346071D01*
X130012857Y-126346071D01*
X130155714Y-126274642D01*
X130227142Y-126131785D01*
X130227142Y-126060357D01*
X130155714Y-125917500D01*
X130012857Y-125846071D01*
X129798571Y-125846071D01*
X129655714Y-125774642D01*
X129584285Y-125631785D01*
X129584285Y-125560357D01*
X129655714Y-125417500D01*
X129798571Y-125346071D01*
X130012857Y-125346071D01*
X130155714Y-125417500D01*
X130655714Y-125346071D02*
X131227142Y-125346071D01*
X130870000Y-124846071D02*
X130870000Y-126131785D01*
X130941428Y-126274642D01*
X131084285Y-126346071D01*
X131227142Y-126346071D01*
X131727142Y-126346071D02*
X131727142Y-125346071D01*
X131727142Y-124846071D02*
X131655714Y-124917500D01*
X131727142Y-124988928D01*
X131798571Y-124917500D01*
X131727142Y-124846071D01*
X131727142Y-124988928D01*
X132441428Y-125346071D02*
X132441428Y-126346071D01*
X132441428Y-125488928D02*
X132512857Y-125417500D01*
X132655714Y-125346071D01*
X132870000Y-125346071D01*
X133012857Y-125417500D01*
X133084285Y-125560357D01*
X133084285Y-126346071D01*
X134941428Y-126346071D02*
X134941428Y-124846071D01*
X135798571Y-126346071D02*
X135155714Y-125488928D01*
X135798571Y-124846071D02*
X134941428Y-125703214D01*
X136655714Y-126346071D02*
X136512857Y-126274642D01*
X136441428Y-126131785D01*
X136441428Y-124846071D01*
X137798571Y-126274642D02*
X137655714Y-126346071D01*
X137370000Y-126346071D01*
X137227142Y-126274642D01*
X137155714Y-126131785D01*
X137155714Y-125560357D01*
X137227142Y-125417500D01*
X137370000Y-125346071D01*
X137655714Y-125346071D01*
X137798571Y-125417500D01*
X137870000Y-125560357D01*
X137870000Y-125703214D01*
X137155714Y-125846071D01*
X138512857Y-126346071D02*
X138512857Y-125346071D01*
X138512857Y-124846071D02*
X138441428Y-124917500D01*
X138512857Y-124988928D01*
X138584285Y-124917500D01*
X138512857Y-124846071D01*
X138512857Y-124988928D01*
X139227142Y-126346071D02*
X139227142Y-124846071D01*
X139227142Y-125417500D02*
X139370000Y-125346071D01*
X139655714Y-125346071D01*
X139798571Y-125417500D01*
X139870000Y-125488928D01*
X139941428Y-125631785D01*
X139941428Y-126060357D01*
X139870000Y-126203214D01*
X139798571Y-126274642D01*
X139655714Y-126346071D01*
X139370000Y-126346071D01*
X139227142Y-126274642D01*
X141155714Y-126274642D02*
X141012857Y-126346071D01*
X140727142Y-126346071D01*
X140584285Y-126274642D01*
X140512857Y-126131785D01*
X140512857Y-125560357D01*
X140584285Y-125417500D01*
X140727142Y-125346071D01*
X141012857Y-125346071D01*
X141155714Y-125417500D01*
X141227142Y-125560357D01*
X141227142Y-125703214D01*
X140512857Y-125846071D01*
X141870000Y-126346071D02*
X141870000Y-125346071D01*
X141870000Y-125631785D02*
X141941428Y-125488928D01*
X142012857Y-125417500D01*
X142155714Y-125346071D01*
X142298571Y-125346071D01*
X197052857Y-106635357D02*
X197267142Y-106706785D01*
X197338571Y-106778214D01*
X197410000Y-106921071D01*
X197410000Y-107135357D01*
X197338571Y-107278214D01*
X197267142Y-107349642D01*
X197124285Y-107421071D01*
X196552857Y-107421071D01*
X196552857Y-105921071D01*
X197052857Y-105921071D01*
X197195714Y-105992500D01*
X197267142Y-106063928D01*
X197338571Y-106206785D01*
X197338571Y-106349642D01*
X197267142Y-106492500D01*
X197195714Y-106563928D01*
X197052857Y-106635357D01*
X196552857Y-106635357D01*
X198052857Y-107421071D02*
X198052857Y-105921071D01*
X198910000Y-107421071D01*
X198910000Y-105921071D01*
X199910000Y-105921071D02*
X200195714Y-105921071D01*
X200338571Y-105992500D01*
X200481428Y-106135357D01*
X200552857Y-106421071D01*
X200552857Y-106921071D01*
X200481428Y-107206785D01*
X200338571Y-107349642D01*
X200195714Y-107421071D01*
X199910000Y-107421071D01*
X199767142Y-107349642D01*
X199624285Y-107206785D01*
X199552857Y-106921071D01*
X199552857Y-106421071D01*
X199624285Y-106135357D01*
X199767142Y-105992500D01*
X199910000Y-105921071D01*
X201481428Y-105921071D02*
X201624285Y-105921071D01*
X201767142Y-105992500D01*
X201838571Y-106063928D01*
X201910000Y-106206785D01*
X201981428Y-106492500D01*
X201981428Y-106849642D01*
X201910000Y-107135357D01*
X201838571Y-107278214D01*
X201767142Y-107349642D01*
X201624285Y-107421071D01*
X201481428Y-107421071D01*
X201338571Y-107349642D01*
X201267142Y-107278214D01*
X201195714Y-107135357D01*
X201124285Y-106849642D01*
X201124285Y-106492500D01*
X201195714Y-106206785D01*
X201267142Y-106063928D01*
X201338571Y-105992500D01*
X201481428Y-105921071D01*
X203338571Y-105921071D02*
X202624285Y-105921071D01*
X202552857Y-106635357D01*
X202624285Y-106563928D01*
X202767142Y-106492500D01*
X203124285Y-106492500D01*
X203267142Y-106563928D01*
X203338571Y-106635357D01*
X203410000Y-106778214D01*
X203410000Y-107135357D01*
X203338571Y-107278214D01*
X203267142Y-107349642D01*
X203124285Y-107421071D01*
X202767142Y-107421071D01*
X202624285Y-107349642D01*
X202552857Y-107278214D01*
X204767142Y-105921071D02*
X204052857Y-105921071D01*
X203981428Y-106635357D01*
X204052857Y-106563928D01*
X204195714Y-106492500D01*
X204552857Y-106492500D01*
X204695714Y-106563928D01*
X204767142Y-106635357D01*
X204838571Y-106778214D01*
X204838571Y-107135357D01*
X204767142Y-107278214D01*
X204695714Y-107349642D01*
X204552857Y-107421071D01*
X204195714Y-107421071D01*
X204052857Y-107349642D01*
X203981428Y-107278214D01*
X199017142Y-109836071D02*
X199017142Y-108336071D01*
X199731428Y-109836071D02*
X199731428Y-108336071D01*
X200231428Y-109407500D01*
X200731428Y-108336071D01*
X200731428Y-109836071D01*
X201445714Y-108336071D02*
X201445714Y-109550357D01*
X201517142Y-109693214D01*
X201588571Y-109764642D01*
X201731428Y-109836071D01*
X202017142Y-109836071D01*
X202160000Y-109764642D01*
X202231428Y-109693214D01*
X202302857Y-109550357D01*
X202302857Y-108336071D01*
X214546428Y-103318571D02*
X215403571Y-103318571D01*
X214975000Y-104818571D02*
X214975000Y-103318571D01*
X215760714Y-103318571D02*
X216760714Y-104818571D01*
X216760714Y-103318571D02*
X215760714Y-104818571D01*
D10*
%TO.C,J7*%
X249856666Y-102107380D02*
X249856666Y-102821666D01*
X249809047Y-102964523D01*
X249713809Y-103059761D01*
X249570952Y-103107380D01*
X249475714Y-103107380D01*
X250237619Y-102107380D02*
X250904285Y-102107380D01*
X250475714Y-103107380D01*
%TO.C,J5*%
X110987380Y-128038333D02*
X111701666Y-128038333D01*
X111844523Y-128085952D01*
X111939761Y-128181190D01*
X111987380Y-128324047D01*
X111987380Y-128419285D01*
X110987380Y-127085952D02*
X110987380Y-127562142D01*
X111463571Y-127609761D01*
X111415952Y-127562142D01*
X111368333Y-127466904D01*
X111368333Y-127228809D01*
X111415952Y-127133571D01*
X111463571Y-127085952D01*
X111558809Y-127038333D01*
X111796904Y-127038333D01*
X111892142Y-127085952D01*
X111939761Y-127133571D01*
X111987380Y-127228809D01*
X111987380Y-127466904D01*
X111939761Y-127562142D01*
X111892142Y-127609761D01*
%TO.C,A1*%
X186221666Y-107394285D02*
X186221666Y-106918095D01*
X186507380Y-107489523D02*
X185507380Y-107156190D01*
X186507380Y-106822857D01*
X186507380Y-105965714D02*
X186507380Y-106537142D01*
X186507380Y-106251428D02*
X185507380Y-106251428D01*
X185650238Y-106346666D01*
X185745476Y-106441904D01*
X185793095Y-106537142D01*
%TO.C,U1*%
X130183095Y-96622380D02*
X130183095Y-97431904D01*
X130230714Y-97527142D01*
X130278333Y-97574761D01*
X130373571Y-97622380D01*
X130564047Y-97622380D01*
X130659285Y-97574761D01*
X130706904Y-97527142D01*
X130754523Y-97431904D01*
X130754523Y-96622380D01*
X131754523Y-97622380D02*
X131183095Y-97622380D01*
X131468809Y-97622380D02*
X131468809Y-96622380D01*
X131373571Y-96765238D01*
X131278333Y-96860476D01*
X131183095Y-96908095D01*
X127165000Y-107646666D02*
X127165000Y-106946666D01*
X127398333Y-107446666D01*
X127631666Y-106946666D01*
X127631666Y-107646666D01*
X127965000Y-107646666D02*
X127965000Y-106946666D01*
X128365000Y-107646666D02*
X128065000Y-107246666D01*
X128365000Y-106946666D02*
X127965000Y-107346666D01*
X128965000Y-106946666D02*
X128831666Y-106946666D01*
X128765000Y-106980000D01*
X128731666Y-107013333D01*
X128665000Y-107113333D01*
X128631666Y-107246666D01*
X128631666Y-107513333D01*
X128665000Y-107580000D01*
X128698333Y-107613333D01*
X128765000Y-107646666D01*
X128898333Y-107646666D01*
X128965000Y-107613333D01*
X128998333Y-107580000D01*
X129031666Y-107513333D01*
X129031666Y-107346666D01*
X128998333Y-107280000D01*
X128965000Y-107246666D01*
X128898333Y-107213333D01*
X128765000Y-107213333D01*
X128698333Y-107246666D01*
X128665000Y-107280000D01*
X128631666Y-107346666D01*
X129631666Y-106946666D02*
X129498333Y-106946666D01*
X129431666Y-106980000D01*
X129398333Y-107013333D01*
X129331666Y-107113333D01*
X129298333Y-107246666D01*
X129298333Y-107513333D01*
X129331666Y-107580000D01*
X129365000Y-107613333D01*
X129431666Y-107646666D01*
X129565000Y-107646666D01*
X129631666Y-107613333D01*
X129665000Y-107580000D01*
X129698333Y-107513333D01*
X129698333Y-107346666D01*
X129665000Y-107280000D01*
X129631666Y-107246666D01*
X129565000Y-107213333D01*
X129431666Y-107213333D01*
X129365000Y-107246666D01*
X129331666Y-107280000D01*
X129298333Y-107346666D01*
X130231666Y-107280000D02*
X129998333Y-107280000D01*
X129998333Y-107646666D02*
X129998333Y-106946666D01*
X130331666Y-106946666D01*
X130531666Y-106946666D02*
X130998333Y-107646666D01*
X130998333Y-106946666D02*
X130531666Y-107646666D01*
X131631666Y-107646666D02*
X131231666Y-107646666D01*
X131431666Y-107646666D02*
X131431666Y-106946666D01*
X131365000Y-107046666D01*
X131298333Y-107113333D01*
X131231666Y-107146666D01*
X131931666Y-107646666D02*
X131931666Y-106946666D01*
X132165000Y-107446666D01*
X132398333Y-106946666D01*
X132398333Y-107646666D01*
X132965000Y-107280000D02*
X133065000Y-107313333D01*
X133098333Y-107346666D01*
X133131666Y-107413333D01*
X133131666Y-107513333D01*
X133098333Y-107580000D01*
X133065000Y-107613333D01*
X132998333Y-107646666D01*
X132731666Y-107646666D01*
X132731666Y-106946666D01*
X132965000Y-106946666D01*
X133031666Y-106980000D01*
X133065000Y-107013333D01*
X133098333Y-107080000D01*
X133098333Y-107146666D01*
X133065000Y-107213333D01*
X133031666Y-107246666D01*
X132965000Y-107280000D01*
X132731666Y-107280000D01*
X133331666Y-106946666D02*
X133565000Y-107646666D01*
X133798333Y-106946666D01*
X134031666Y-107646666D02*
X134031666Y-106946666D01*
X134265000Y-107446666D01*
X134498333Y-106946666D01*
X134498333Y-107646666D01*
X134831666Y-107646666D02*
X134831666Y-106946666D01*
X134998333Y-106946666D01*
X135098333Y-106980000D01*
X135165000Y-107046666D01*
X135198333Y-107113333D01*
X135231666Y-107246666D01*
X135231666Y-107346666D01*
X135198333Y-107480000D01*
X135165000Y-107546666D01*
X135098333Y-107613333D01*
X134998333Y-107646666D01*
X134831666Y-107646666D01*
X135898333Y-107646666D02*
X135498333Y-107646666D01*
X135698333Y-107646666D02*
X135698333Y-106946666D01*
X135631666Y-107046666D01*
X135565000Y-107113333D01*
X135498333Y-107146666D01*
X136298333Y-107246666D02*
X136231666Y-107213333D01*
X136198333Y-107180000D01*
X136165000Y-107113333D01*
X136165000Y-107080000D01*
X136198333Y-107013333D01*
X136231666Y-106980000D01*
X136298333Y-106946666D01*
X136431666Y-106946666D01*
X136498333Y-106980000D01*
X136531666Y-107013333D01*
X136565000Y-107080000D01*
X136565000Y-107113333D01*
X136531666Y-107180000D01*
X136498333Y-107213333D01*
X136431666Y-107246666D01*
X136298333Y-107246666D01*
X136231666Y-107280000D01*
X136198333Y-107313333D01*
X136165000Y-107380000D01*
X136165000Y-107513333D01*
X136198333Y-107580000D01*
X136231666Y-107613333D01*
X136298333Y-107646666D01*
X136431666Y-107646666D01*
X136498333Y-107613333D01*
X136531666Y-107580000D01*
X136565000Y-107513333D01*
X136565000Y-107380000D01*
X136531666Y-107313333D01*
X136498333Y-107280000D01*
X136431666Y-107246666D01*
X137365000Y-106913333D02*
X136765000Y-107813333D01*
X127615000Y-108789666D02*
X127615000Y-108089666D01*
X127848333Y-108589666D01*
X128081666Y-108089666D01*
X128081666Y-108789666D01*
X128415000Y-108789666D02*
X128415000Y-108089666D01*
X128815000Y-108789666D02*
X128515000Y-108389666D01*
X128815000Y-108089666D02*
X128415000Y-108489666D01*
X129415000Y-108089666D02*
X129281666Y-108089666D01*
X129215000Y-108123000D01*
X129181666Y-108156333D01*
X129115000Y-108256333D01*
X129081666Y-108389666D01*
X129081666Y-108656333D01*
X129115000Y-108723000D01*
X129148333Y-108756333D01*
X129215000Y-108789666D01*
X129348333Y-108789666D01*
X129415000Y-108756333D01*
X129448333Y-108723000D01*
X129481666Y-108656333D01*
X129481666Y-108489666D01*
X129448333Y-108423000D01*
X129415000Y-108389666D01*
X129348333Y-108356333D01*
X129215000Y-108356333D01*
X129148333Y-108389666D01*
X129115000Y-108423000D01*
X129081666Y-108489666D01*
X130081666Y-108323000D02*
X130081666Y-108789666D01*
X129915000Y-108056333D02*
X129748333Y-108556333D01*
X130181666Y-108556333D01*
X130681666Y-108423000D02*
X130448333Y-108423000D01*
X130448333Y-108789666D02*
X130448333Y-108089666D01*
X130781666Y-108089666D01*
X130981666Y-108089666D02*
X131448333Y-108789666D01*
X131448333Y-108089666D02*
X130981666Y-108789666D01*
X132048333Y-108089666D02*
X131715000Y-108089666D01*
X131681666Y-108423000D01*
X131715000Y-108389666D01*
X131781666Y-108356333D01*
X131948333Y-108356333D01*
X132015000Y-108389666D01*
X132048333Y-108423000D01*
X132081666Y-108489666D01*
X132081666Y-108656333D01*
X132048333Y-108723000D01*
X132015000Y-108756333D01*
X131948333Y-108789666D01*
X131781666Y-108789666D01*
X131715000Y-108756333D01*
X131681666Y-108723000D01*
X132748333Y-108789666D02*
X132348333Y-108789666D01*
X132548333Y-108789666D02*
X132548333Y-108089666D01*
X132481666Y-108189666D01*
X132415000Y-108256333D01*
X132348333Y-108289666D01*
X133015000Y-108156333D02*
X133048333Y-108123000D01*
X133115000Y-108089666D01*
X133281666Y-108089666D01*
X133348333Y-108123000D01*
X133381666Y-108156333D01*
X133415000Y-108223000D01*
X133415000Y-108289666D01*
X133381666Y-108389666D01*
X132981666Y-108789666D01*
X133415000Y-108789666D01*
X133615000Y-108089666D02*
X133848333Y-108789666D01*
X134081666Y-108089666D01*
X134315000Y-108789666D02*
X134315000Y-108089666D01*
X134548333Y-108589666D01*
X134781666Y-108089666D01*
X134781666Y-108789666D01*
X135115000Y-108789666D02*
X135115000Y-108089666D01*
X135281666Y-108089666D01*
X135381666Y-108123000D01*
X135448333Y-108189666D01*
X135481666Y-108256333D01*
X135515000Y-108389666D01*
X135515000Y-108489666D01*
X135481666Y-108623000D01*
X135448333Y-108689666D01*
X135381666Y-108756333D01*
X135281666Y-108789666D01*
X135115000Y-108789666D01*
X136181666Y-108789666D02*
X135781666Y-108789666D01*
X135981666Y-108789666D02*
X135981666Y-108089666D01*
X135915000Y-108189666D01*
X135848333Y-108256333D01*
X135781666Y-108289666D01*
X136448333Y-108156333D02*
X136481666Y-108123000D01*
X136548333Y-108089666D01*
X136715000Y-108089666D01*
X136781666Y-108123000D01*
X136815000Y-108156333D01*
X136848333Y-108223000D01*
X136848333Y-108289666D01*
X136815000Y-108389666D01*
X136415000Y-108789666D01*
X136848333Y-108789666D01*
%TO.C,J3*%
X101277380Y-88528333D02*
X101991666Y-88528333D01*
X102134523Y-88575952D01*
X102229761Y-88671190D01*
X102277380Y-88814047D01*
X102277380Y-88909285D01*
X101277380Y-88147380D02*
X101277380Y-87528333D01*
X101658333Y-87861666D01*
X101658333Y-87718809D01*
X101705952Y-87623571D01*
X101753571Y-87575952D01*
X101848809Y-87528333D01*
X102086904Y-87528333D01*
X102182142Y-87575952D01*
X102229761Y-87623571D01*
X102277380Y-87718809D01*
X102277380Y-88004523D01*
X102229761Y-88099761D01*
X102182142Y-88147380D01*
%TO.C,U2*%
X167377619Y-121158095D02*
X166568095Y-121158095D01*
X166472857Y-121205714D01*
X166425238Y-121253333D01*
X166377619Y-121348571D01*
X166377619Y-121539047D01*
X166425238Y-121634285D01*
X166472857Y-121681904D01*
X166568095Y-121729523D01*
X167377619Y-121729523D01*
X167282380Y-122158095D02*
X167330000Y-122205714D01*
X167377619Y-122300952D01*
X167377619Y-122539047D01*
X167330000Y-122634285D01*
X167282380Y-122681904D01*
X167187142Y-122729523D01*
X167091904Y-122729523D01*
X166949047Y-122681904D01*
X166377619Y-122110476D01*
X166377619Y-122729523D01*
X168457619Y-113704761D02*
X168457619Y-113228571D01*
X169457619Y-113228571D01*
X169457619Y-113895238D02*
X168457619Y-114228571D01*
X169457619Y-114561904D01*
X169124285Y-115323809D02*
X168457619Y-115323809D01*
X169505238Y-115085714D02*
X168790952Y-114847619D01*
X168790952Y-115466666D01*
X181157619Y-128349523D02*
X182157619Y-128349523D01*
X181681428Y-128349523D02*
X181681428Y-128920952D01*
X181157619Y-128920952D02*
X182157619Y-128920952D01*
X182157619Y-129254285D02*
X181157619Y-129587619D01*
X182157619Y-129920952D01*
X181157619Y-130778095D02*
X181157619Y-130206666D01*
X181157619Y-130492380D02*
X182157619Y-130492380D01*
X182014761Y-130397142D01*
X181919523Y-130301904D01*
X181871904Y-130206666D01*
X178617619Y-113704761D02*
X178617619Y-113228571D01*
X179617619Y-113228571D01*
X179617619Y-113895238D02*
X178617619Y-114228571D01*
X179617619Y-114561904D01*
X179522380Y-114847619D02*
X179570000Y-114895238D01*
X179617619Y-114990476D01*
X179617619Y-115228571D01*
X179570000Y-115323809D01*
X179522380Y-115371428D01*
X179427142Y-115419047D01*
X179331904Y-115419047D01*
X179189047Y-115371428D01*
X178617619Y-114800000D01*
X178617619Y-115419047D01*
X168457619Y-128349523D02*
X169457619Y-128349523D01*
X168981428Y-128349523D02*
X168981428Y-128920952D01*
X168457619Y-128920952D02*
X169457619Y-128920952D01*
X169457619Y-129254285D02*
X168457619Y-129587619D01*
X169457619Y-129920952D01*
X169124285Y-130682857D02*
X168457619Y-130682857D01*
X169505238Y-130444761D02*
X168790952Y-130206666D01*
X168790952Y-130825714D01*
X181157619Y-113704761D02*
X181157619Y-113228571D01*
X182157619Y-113228571D01*
X182157619Y-113895238D02*
X181157619Y-114228571D01*
X182157619Y-114561904D01*
X181157619Y-115419047D02*
X181157619Y-114847619D01*
X181157619Y-115133333D02*
X182157619Y-115133333D01*
X182014761Y-115038095D01*
X181919523Y-114942857D01*
X181871904Y-114847619D01*
X178617619Y-128349523D02*
X179617619Y-128349523D01*
X179141428Y-128349523D02*
X179141428Y-128920952D01*
X178617619Y-128920952D02*
X179617619Y-128920952D01*
X179617619Y-129254285D02*
X178617619Y-129587619D01*
X179617619Y-129920952D01*
X179522380Y-130206666D02*
X179570000Y-130254285D01*
X179617619Y-130349523D01*
X179617619Y-130587619D01*
X179570000Y-130682857D01*
X179522380Y-130730476D01*
X179427142Y-130778095D01*
X179331904Y-130778095D01*
X179189047Y-130730476D01*
X178617619Y-130159047D01*
X178617619Y-130778095D01*
X170997619Y-113704761D02*
X170997619Y-113228571D01*
X171997619Y-113228571D01*
X171997619Y-113895238D02*
X170997619Y-114228571D01*
X171997619Y-114561904D01*
X171997619Y-114800000D02*
X171997619Y-115419047D01*
X171616666Y-115085714D01*
X171616666Y-115228571D01*
X171569047Y-115323809D01*
X171521428Y-115371428D01*
X171426190Y-115419047D01*
X171188095Y-115419047D01*
X171092857Y-115371428D01*
X171045238Y-115323809D01*
X170997619Y-115228571D01*
X170997619Y-114942857D01*
X171045238Y-114847619D01*
X171092857Y-114800000D01*
X176077619Y-114180952D02*
X176077619Y-113704761D01*
X177077619Y-113704761D01*
X177077619Y-114371428D02*
X176077619Y-114704761D01*
X177077619Y-115038095D01*
X176077619Y-128825714D02*
X177077619Y-128825714D01*
X176601428Y-128825714D02*
X176601428Y-129397142D01*
X176077619Y-129397142D02*
X177077619Y-129397142D01*
X177077619Y-129730476D02*
X176077619Y-130063809D01*
X177077619Y-130397142D01*
X174490000Y-128778095D02*
X174537619Y-128682857D01*
X174537619Y-128540000D01*
X174490000Y-128397142D01*
X174394761Y-128301904D01*
X174299523Y-128254285D01*
X174109047Y-128206666D01*
X173966190Y-128206666D01*
X173775714Y-128254285D01*
X173680476Y-128301904D01*
X173585238Y-128397142D01*
X173537619Y-128540000D01*
X173537619Y-128635238D01*
X173585238Y-128778095D01*
X173632857Y-128825714D01*
X173966190Y-128825714D01*
X173966190Y-128635238D01*
X173537619Y-129254285D02*
X174537619Y-129254285D01*
X173537619Y-129825714D01*
X174537619Y-129825714D01*
X173537619Y-130301904D02*
X174537619Y-130301904D01*
X174537619Y-130540000D01*
X174490000Y-130682857D01*
X174394761Y-130778095D01*
X174299523Y-130825714D01*
X174109047Y-130873333D01*
X173966190Y-130873333D01*
X173775714Y-130825714D01*
X173680476Y-130778095D01*
X173585238Y-130682857D01*
X173537619Y-130540000D01*
X173537619Y-130301904D01*
X170997619Y-128349523D02*
X171997619Y-128349523D01*
X171521428Y-128349523D02*
X171521428Y-128920952D01*
X170997619Y-128920952D02*
X171997619Y-128920952D01*
X171997619Y-129254285D02*
X170997619Y-129587619D01*
X171997619Y-129920952D01*
X171997619Y-130159047D02*
X171997619Y-130778095D01*
X171616666Y-130444761D01*
X171616666Y-130587619D01*
X171569047Y-130682857D01*
X171521428Y-130730476D01*
X171426190Y-130778095D01*
X171188095Y-130778095D01*
X171092857Y-130730476D01*
X171045238Y-130682857D01*
X170997619Y-130587619D01*
X170997619Y-130301904D01*
X171045238Y-130206666D01*
X171092857Y-130159047D01*
X174490000Y-113538095D02*
X174537619Y-113442857D01*
X174537619Y-113300000D01*
X174490000Y-113157142D01*
X174394761Y-113061904D01*
X174299523Y-113014285D01*
X174109047Y-112966666D01*
X173966190Y-112966666D01*
X173775714Y-113014285D01*
X173680476Y-113061904D01*
X173585238Y-113157142D01*
X173537619Y-113300000D01*
X173537619Y-113395238D01*
X173585238Y-113538095D01*
X173632857Y-113585714D01*
X173966190Y-113585714D01*
X173966190Y-113395238D01*
X173537619Y-114014285D02*
X174537619Y-114014285D01*
X173537619Y-114585714D01*
X174537619Y-114585714D01*
X173537619Y-115061904D02*
X174537619Y-115061904D01*
X174537619Y-115300000D01*
X174490000Y-115442857D01*
X174394761Y-115538095D01*
X174299523Y-115585714D01*
X174109047Y-115633333D01*
X173966190Y-115633333D01*
X173775714Y-115585714D01*
X173680476Y-115538095D01*
X173585238Y-115442857D01*
X173537619Y-115300000D01*
X173537619Y-115061904D01*
%TO.C,R2*%
X134453333Y-96802380D02*
X134120000Y-96326190D01*
X133881904Y-96802380D02*
X133881904Y-95802380D01*
X134262857Y-95802380D01*
X134358095Y-95850000D01*
X134405714Y-95897619D01*
X134453333Y-95992857D01*
X134453333Y-96135714D01*
X134405714Y-96230952D01*
X134358095Y-96278571D01*
X134262857Y-96326190D01*
X133881904Y-96326190D01*
X134834285Y-95897619D02*
X134881904Y-95850000D01*
X134977142Y-95802380D01*
X135215238Y-95802380D01*
X135310476Y-95850000D01*
X135358095Y-95897619D01*
X135405714Y-95992857D01*
X135405714Y-96088095D01*
X135358095Y-96230952D01*
X134786666Y-96802380D01*
X135405714Y-96802380D01*
%TO.C,J2*%
X228277380Y-88528333D02*
X228991666Y-88528333D01*
X229134523Y-88575952D01*
X229229761Y-88671190D01*
X229277380Y-88814047D01*
X229277380Y-88909285D01*
X228372619Y-88099761D02*
X228325000Y-88052142D01*
X228277380Y-87956904D01*
X228277380Y-87718809D01*
X228325000Y-87623571D01*
X228372619Y-87575952D01*
X228467857Y-87528333D01*
X228563095Y-87528333D01*
X228705952Y-87575952D01*
X229277380Y-88147380D01*
X229277380Y-87528333D01*
%TO.C,J4*%
X237987380Y-128038333D02*
X238701666Y-128038333D01*
X238844523Y-128085952D01*
X238939761Y-128181190D01*
X238987380Y-128324047D01*
X238987380Y-128419285D01*
X238320714Y-127133571D02*
X238987380Y-127133571D01*
X237939761Y-127371666D02*
X238654047Y-127609761D01*
X238654047Y-126990714D01*
%TO.C,J1*%
X202652380Y-90498333D02*
X203366666Y-90498333D01*
X203509523Y-90545952D01*
X203604761Y-90641190D01*
X203652380Y-90784047D01*
X203652380Y-90879285D01*
X203652380Y-89498333D02*
X203652380Y-90069761D01*
X203652380Y-89784047D02*
X202652380Y-89784047D01*
X202795238Y-89879285D01*
X202890476Y-89974523D01*
X202938095Y-90069761D01*
%TO.C,U3*%
X167377619Y-93218095D02*
X166568095Y-93218095D01*
X166472857Y-93265714D01*
X166425238Y-93313333D01*
X166377619Y-93408571D01*
X166377619Y-93599047D01*
X166425238Y-93694285D01*
X166472857Y-93741904D01*
X166568095Y-93789523D01*
X167377619Y-93789523D01*
X167377619Y-94170476D02*
X167377619Y-94789523D01*
X166996666Y-94456190D01*
X166996666Y-94599047D01*
X166949047Y-94694285D01*
X166901428Y-94741904D01*
X166806190Y-94789523D01*
X166568095Y-94789523D01*
X166472857Y-94741904D01*
X166425238Y-94694285D01*
X166377619Y-94599047D01*
X166377619Y-94313333D01*
X166425238Y-94218095D01*
X166472857Y-94170476D01*
X168457619Y-85764761D02*
X168457619Y-85288571D01*
X169457619Y-85288571D01*
X169457619Y-85955238D02*
X168457619Y-86288571D01*
X169457619Y-86621904D01*
X169124285Y-87383809D02*
X168457619Y-87383809D01*
X169505238Y-87145714D02*
X168790952Y-86907619D01*
X168790952Y-87526666D01*
X181157619Y-100409523D02*
X182157619Y-100409523D01*
X181681428Y-100409523D02*
X181681428Y-100980952D01*
X181157619Y-100980952D02*
X182157619Y-100980952D01*
X182157619Y-101314285D02*
X181157619Y-101647619D01*
X182157619Y-101980952D01*
X181157619Y-102838095D02*
X181157619Y-102266666D01*
X181157619Y-102552380D02*
X182157619Y-102552380D01*
X182014761Y-102457142D01*
X181919523Y-102361904D01*
X181871904Y-102266666D01*
X178617619Y-85764761D02*
X178617619Y-85288571D01*
X179617619Y-85288571D01*
X179617619Y-85955238D02*
X178617619Y-86288571D01*
X179617619Y-86621904D01*
X179522380Y-86907619D02*
X179570000Y-86955238D01*
X179617619Y-87050476D01*
X179617619Y-87288571D01*
X179570000Y-87383809D01*
X179522380Y-87431428D01*
X179427142Y-87479047D01*
X179331904Y-87479047D01*
X179189047Y-87431428D01*
X178617619Y-86860000D01*
X178617619Y-87479047D01*
X168457619Y-100409523D02*
X169457619Y-100409523D01*
X168981428Y-100409523D02*
X168981428Y-100980952D01*
X168457619Y-100980952D02*
X169457619Y-100980952D01*
X169457619Y-101314285D02*
X168457619Y-101647619D01*
X169457619Y-101980952D01*
X169124285Y-102742857D02*
X168457619Y-102742857D01*
X169505238Y-102504761D02*
X168790952Y-102266666D01*
X168790952Y-102885714D01*
X181157619Y-85764761D02*
X181157619Y-85288571D01*
X182157619Y-85288571D01*
X182157619Y-85955238D02*
X181157619Y-86288571D01*
X182157619Y-86621904D01*
X181157619Y-87479047D02*
X181157619Y-86907619D01*
X181157619Y-87193333D02*
X182157619Y-87193333D01*
X182014761Y-87098095D01*
X181919523Y-87002857D01*
X181871904Y-86907619D01*
X178617619Y-100409523D02*
X179617619Y-100409523D01*
X179141428Y-100409523D02*
X179141428Y-100980952D01*
X178617619Y-100980952D02*
X179617619Y-100980952D01*
X179617619Y-101314285D02*
X178617619Y-101647619D01*
X179617619Y-101980952D01*
X179522380Y-102266666D02*
X179570000Y-102314285D01*
X179617619Y-102409523D01*
X179617619Y-102647619D01*
X179570000Y-102742857D01*
X179522380Y-102790476D01*
X179427142Y-102838095D01*
X179331904Y-102838095D01*
X179189047Y-102790476D01*
X178617619Y-102219047D01*
X178617619Y-102838095D01*
X170997619Y-85764761D02*
X170997619Y-85288571D01*
X171997619Y-85288571D01*
X171997619Y-85955238D02*
X170997619Y-86288571D01*
X171997619Y-86621904D01*
X171997619Y-86860000D02*
X171997619Y-87479047D01*
X171616666Y-87145714D01*
X171616666Y-87288571D01*
X171569047Y-87383809D01*
X171521428Y-87431428D01*
X171426190Y-87479047D01*
X171188095Y-87479047D01*
X171092857Y-87431428D01*
X171045238Y-87383809D01*
X170997619Y-87288571D01*
X170997619Y-87002857D01*
X171045238Y-86907619D01*
X171092857Y-86860000D01*
X176077619Y-86240952D02*
X176077619Y-85764761D01*
X177077619Y-85764761D01*
X177077619Y-86431428D02*
X176077619Y-86764761D01*
X177077619Y-87098095D01*
X176077619Y-100885714D02*
X177077619Y-100885714D01*
X176601428Y-100885714D02*
X176601428Y-101457142D01*
X176077619Y-101457142D02*
X177077619Y-101457142D01*
X177077619Y-101790476D02*
X176077619Y-102123809D01*
X177077619Y-102457142D01*
X174490000Y-100838095D02*
X174537619Y-100742857D01*
X174537619Y-100600000D01*
X174490000Y-100457142D01*
X174394761Y-100361904D01*
X174299523Y-100314285D01*
X174109047Y-100266666D01*
X173966190Y-100266666D01*
X173775714Y-100314285D01*
X173680476Y-100361904D01*
X173585238Y-100457142D01*
X173537619Y-100600000D01*
X173537619Y-100695238D01*
X173585238Y-100838095D01*
X173632857Y-100885714D01*
X173966190Y-100885714D01*
X173966190Y-100695238D01*
X173537619Y-101314285D02*
X174537619Y-101314285D01*
X173537619Y-101885714D01*
X174537619Y-101885714D01*
X173537619Y-102361904D02*
X174537619Y-102361904D01*
X174537619Y-102600000D01*
X174490000Y-102742857D01*
X174394761Y-102838095D01*
X174299523Y-102885714D01*
X174109047Y-102933333D01*
X173966190Y-102933333D01*
X173775714Y-102885714D01*
X173680476Y-102838095D01*
X173585238Y-102742857D01*
X173537619Y-102600000D01*
X173537619Y-102361904D01*
X170997619Y-100409523D02*
X171997619Y-100409523D01*
X171521428Y-100409523D02*
X171521428Y-100980952D01*
X170997619Y-100980952D02*
X171997619Y-100980952D01*
X171997619Y-101314285D02*
X170997619Y-101647619D01*
X171997619Y-101980952D01*
X171997619Y-102219047D02*
X171997619Y-102838095D01*
X171616666Y-102504761D01*
X171616666Y-102647619D01*
X171569047Y-102742857D01*
X171521428Y-102790476D01*
X171426190Y-102838095D01*
X171188095Y-102838095D01*
X171092857Y-102790476D01*
X171045238Y-102742857D01*
X170997619Y-102647619D01*
X170997619Y-102361904D01*
X171045238Y-102266666D01*
X171092857Y-102219047D01*
X174490000Y-85598095D02*
X174537619Y-85502857D01*
X174537619Y-85360000D01*
X174490000Y-85217142D01*
X174394761Y-85121904D01*
X174299523Y-85074285D01*
X174109047Y-85026666D01*
X173966190Y-85026666D01*
X173775714Y-85074285D01*
X173680476Y-85121904D01*
X173585238Y-85217142D01*
X173537619Y-85360000D01*
X173537619Y-85455238D01*
X173585238Y-85598095D01*
X173632857Y-85645714D01*
X173966190Y-85645714D01*
X173966190Y-85455238D01*
X173537619Y-86074285D02*
X174537619Y-86074285D01*
X173537619Y-86645714D01*
X174537619Y-86645714D01*
X173537619Y-87121904D02*
X174537619Y-87121904D01*
X174537619Y-87360000D01*
X174490000Y-87502857D01*
X174394761Y-87598095D01*
X174299523Y-87645714D01*
X174109047Y-87693333D01*
X173966190Y-87693333D01*
X173775714Y-87645714D01*
X173680476Y-87598095D01*
X173585238Y-87502857D01*
X173537619Y-87360000D01*
X173537619Y-87121904D01*
%TO.C,J6*%
X218106666Y-98282380D02*
X218106666Y-98996666D01*
X218059047Y-99139523D01*
X217963809Y-99234761D01*
X217820952Y-99282380D01*
X217725714Y-99282380D01*
X219011428Y-98282380D02*
X218820952Y-98282380D01*
X218725714Y-98330000D01*
X218678095Y-98377619D01*
X218582857Y-98520476D01*
X218535238Y-98710952D01*
X218535238Y-99091904D01*
X218582857Y-99187142D01*
X218630476Y-99234761D01*
X218725714Y-99282380D01*
X218916190Y-99282380D01*
X219011428Y-99234761D01*
X219059047Y-99187142D01*
X219106666Y-99091904D01*
X219106666Y-98853809D01*
X219059047Y-98758571D01*
X219011428Y-98710952D01*
X218916190Y-98663333D01*
X218725714Y-98663333D01*
X218630476Y-98710952D01*
X218582857Y-98758571D01*
X218535238Y-98853809D01*
%TO.C,R1*%
X111593333Y-96802380D02*
X111260000Y-96326190D01*
X111021904Y-96802380D02*
X111021904Y-95802380D01*
X111402857Y-95802380D01*
X111498095Y-95850000D01*
X111545714Y-95897619D01*
X111593333Y-95992857D01*
X111593333Y-96135714D01*
X111545714Y-96230952D01*
X111498095Y-96278571D01*
X111402857Y-96326190D01*
X111021904Y-96326190D01*
X112545714Y-96802380D02*
X111974285Y-96802380D01*
X112260000Y-96802380D02*
X112260000Y-95802380D01*
X112164761Y-95945238D01*
X112069523Y-96040476D01*
X111974285Y-96088095D01*
D12*
%TO.C,J7*%
X250190000Y-104095000D02*
X251520000Y-104095000D01*
X251520000Y-106695000D02*
X251520000Y-111835000D01*
X248860000Y-106695000D02*
X248860000Y-111835000D01*
X248860000Y-106695000D02*
X251520000Y-106695000D01*
X251520000Y-104095000D02*
X251520000Y-105425000D01*
X248860000Y-111835000D02*
X251520000Y-111835000D01*
%TO.C,J5*%
X102795000Y-126375000D02*
X102795000Y-129035000D01*
X107935000Y-126375000D02*
X102795000Y-126375000D01*
X109205000Y-126375000D02*
X110535000Y-126375000D01*
X107935000Y-129035000D02*
X102795000Y-129035000D01*
X110535000Y-126375000D02*
X110535000Y-127705000D01*
X107935000Y-126375000D02*
X107935000Y-129035000D01*
%TO.C,A1*%
X187325000Y-114300000D02*
X187325000Y-99060000D01*
X208280000Y-114300000D02*
X193040000Y-114300000D01*
X195580000Y-99060000D02*
X205740000Y-99060000D01*
X189865000Y-96520000D02*
X211455000Y-96520000D01*
X213995000Y-114300000D02*
X213995000Y-99060000D01*
X193040000Y-114300000D02*
X193040000Y-116840000D01*
X205740000Y-99060000D02*
X205740000Y-96520000D01*
X208280000Y-116840000D02*
X208280000Y-114300000D01*
X195580000Y-96520000D02*
X195580000Y-99060000D01*
X211455000Y-116840000D02*
X189865000Y-116840000D01*
X213995000Y-99060000D02*
G75*
G03*
X211455000Y-96520000I-2540000J0D01*
G01*
X211455000Y-116840000D02*
G75*
G03*
X213995000Y-114300000I-1J2540001D01*
G01*
X187325000Y-114300000D02*
G75*
G03*
X189865000Y-116840000I2540001J1D01*
G01*
X189865000Y-96520000D02*
G75*
G03*
X187325000Y-99060000I0J-2540000D01*
G01*
D10*
%TO.C,U1*%
X160155000Y-111140000D02*
X161425000Y-111140000D01*
X161425000Y-113680000D02*
X160155000Y-112410000D01*
X160155000Y-109870000D02*
X161425000Y-109870000D01*
X138565000Y-113680000D02*
X138565000Y-100980000D01*
X160155000Y-103520000D02*
X161425000Y-103520000D01*
X105545000Y-111140000D02*
X105545000Y-103520000D01*
X160155000Y-108600000D02*
X161425000Y-108600000D01*
X144915000Y-109870000D02*
X142375000Y-109870000D01*
X160155000Y-112410000D02*
X160155000Y-102250000D01*
X160155000Y-102250000D02*
X161425000Y-102250000D01*
X160155000Y-104790000D02*
X161425000Y-104790000D01*
X148725000Y-113680000D02*
X161425000Y-113680000D01*
X161425000Y-100980000D02*
X148725000Y-100980000D01*
X105545000Y-103520000D02*
X100465000Y-103520000D01*
X99195000Y-111140000D02*
X99195000Y-103520000D01*
X120785000Y-109870000D02*
X124595000Y-109870000D01*
X160155000Y-107330000D02*
X161425000Y-107330000D01*
X116975000Y-106060000D02*
X119515000Y-106060000D01*
X125865000Y-113680000D02*
X138565000Y-113680000D01*
X119515000Y-106060000D02*
X119515000Y-103520000D01*
X142375000Y-104790000D02*
X144915000Y-104790000D01*
X124595000Y-112410000D02*
X120785000Y-112410000D01*
X160155000Y-102250000D02*
X161425000Y-100980000D01*
X125865000Y-100980000D02*
X138565000Y-100980000D01*
X125865000Y-100980000D02*
X125865000Y-113680000D01*
X119515000Y-103520000D02*
X116975000Y-103520000D01*
X100465000Y-116220000D02*
X100465000Y-98440000D01*
X100465000Y-116220000D02*
X161425000Y-116220000D01*
X116975000Y-103520000D02*
X116975000Y-106060000D01*
X160155000Y-106060000D02*
X161425000Y-106060000D01*
X144915000Y-104790000D02*
X144915000Y-109870000D01*
X161425000Y-98440000D02*
X100465000Y-98440000D01*
X120785000Y-112410000D02*
X120785000Y-109870000D01*
X105545000Y-111140000D02*
X100465000Y-111140000D01*
X124595000Y-109870000D02*
X124595000Y-112410000D01*
X142375000Y-109870000D02*
X142375000Y-104790000D01*
X160155000Y-112410000D02*
X161425000Y-112410000D01*
X99195000Y-103520000D02*
X100465000Y-103520000D01*
X100465000Y-111140000D02*
X99195000Y-111140000D01*
X161425000Y-98440000D02*
X161425000Y-116220000D01*
X148725000Y-100980000D02*
X148725000Y-113680000D01*
G36*
X132469000Y-103774000D02*
G01*
X132088000Y-104028000D01*
X131834000Y-103774000D01*
X132215000Y-103520000D01*
X132469000Y-103774000D01*
G37*
D13*
X132469000Y-103774000D02*
X132088000Y-104028000D01*
X131834000Y-103774000D01*
X132215000Y-103520000D01*
X132469000Y-103774000D01*
G36*
X132342000Y-104536000D02*
G01*
X131961000Y-104790000D01*
X131707000Y-104536000D01*
X132088000Y-104282000D01*
X132342000Y-104536000D01*
G37*
X132342000Y-104536000D02*
X131961000Y-104790000D01*
X131707000Y-104536000D01*
X132088000Y-104282000D01*
X132342000Y-104536000D01*
G36*
X132850000Y-104155000D02*
G01*
X132469000Y-104409000D01*
X132215000Y-104155000D01*
X132596000Y-103901000D01*
X132850000Y-104155000D01*
G37*
X132850000Y-104155000D02*
X132469000Y-104409000D01*
X132215000Y-104155000D01*
X132596000Y-103901000D01*
X132850000Y-104155000D01*
G36*
X132596000Y-103012000D02*
G01*
X132215000Y-103266000D01*
X131961000Y-103012000D01*
X132342000Y-102758000D01*
X132596000Y-103012000D01*
G37*
X132596000Y-103012000D02*
X132215000Y-103266000D01*
X131961000Y-103012000D01*
X132342000Y-102758000D01*
X132596000Y-103012000D01*
G36*
X131834000Y-104917000D02*
G01*
X131453000Y-105171000D01*
X131199000Y-104917000D01*
X131580000Y-104663000D01*
X131834000Y-104917000D01*
G37*
X131834000Y-104917000D02*
X131453000Y-105171000D01*
X131199000Y-104917000D01*
X131580000Y-104663000D01*
X131834000Y-104917000D01*
G36*
X132977000Y-103393000D02*
G01*
X132596000Y-103647000D01*
X132342000Y-103393000D01*
X132723000Y-103139000D01*
X132977000Y-103393000D01*
G37*
X132977000Y-103393000D02*
X132596000Y-103647000D01*
X132342000Y-103393000D01*
X132723000Y-103139000D01*
X132977000Y-103393000D01*
G36*
X131961000Y-104155000D02*
G01*
X131580000Y-104409000D01*
X131326000Y-104155000D01*
X131707000Y-103901000D01*
X131961000Y-104155000D01*
G37*
X131961000Y-104155000D02*
X131580000Y-104409000D01*
X131326000Y-104155000D01*
X131707000Y-103901000D01*
X131961000Y-104155000D01*
G36*
X132215000Y-102631000D02*
G01*
X131834000Y-102885000D01*
X131580000Y-102631000D01*
X131961000Y-102377000D01*
X132215000Y-102631000D01*
G37*
X132215000Y-102631000D02*
X131834000Y-102885000D01*
X131580000Y-102631000D01*
X131961000Y-102377000D01*
X132215000Y-102631000D01*
D12*
%TO.C,J3*%
X110565000Y-89525000D02*
X110565000Y-86865000D01*
X105425000Y-89525000D02*
X110565000Y-89525000D01*
X104155000Y-89525000D02*
X102825000Y-89525000D01*
X105425000Y-86865000D02*
X110565000Y-86865000D01*
X102825000Y-89525000D02*
X102825000Y-88195000D01*
X105425000Y-89525000D02*
X105425000Y-86865000D01*
%TO.C,R2*%
X131350000Y-92610000D02*
X131350000Y-95350000D01*
X128040000Y-93980000D02*
X131350000Y-93980000D01*
X131350000Y-95350000D02*
X137890000Y-95350000D01*
X137890000Y-92610000D02*
X131350000Y-92610000D01*
X137890000Y-95350000D02*
X137890000Y-92610000D01*
X141200000Y-93980000D02*
X137890000Y-93980000D01*
%TO.C,J2*%
X237565000Y-89525000D02*
X237565000Y-86865000D01*
X232425000Y-89525000D02*
X237565000Y-89525000D01*
X231155000Y-89525000D02*
X229825000Y-89525000D01*
X232425000Y-86865000D02*
X237565000Y-86865000D01*
X229825000Y-89525000D02*
X229825000Y-88195000D01*
X232425000Y-89525000D02*
X232425000Y-86865000D01*
%TO.C,J4*%
X229795000Y-126375000D02*
X229795000Y-129035000D01*
X234935000Y-126375000D02*
X229795000Y-126375000D01*
X236205000Y-126375000D02*
X237535000Y-126375000D01*
X234935000Y-129035000D02*
X229795000Y-129035000D01*
X237535000Y-126375000D02*
X237535000Y-127705000D01*
X234935000Y-126375000D02*
X234935000Y-129035000D01*
%TO.C,J1*%
X212080000Y-90165000D02*
X214680000Y-90165000D01*
X213350000Y-87565000D02*
X214680000Y-87565000D01*
X214680000Y-92765000D02*
X204400000Y-92765000D01*
X204400000Y-87565000D02*
X204400000Y-92765000D01*
X212080000Y-87565000D02*
X204400000Y-87565000D01*
X212080000Y-87565000D02*
X212080000Y-90165000D01*
X214680000Y-87565000D02*
X214680000Y-88895000D01*
X214680000Y-90165000D02*
X214680000Y-92765000D01*
%TO.C,J6*%
X219770000Y-100270000D02*
X219770000Y-101600000D01*
X219770000Y-102870000D02*
X219770000Y-113090000D01*
X217110000Y-102870000D02*
X217110000Y-113090000D01*
X217110000Y-102870000D02*
X219770000Y-102870000D01*
X217110000Y-113090000D02*
X219770000Y-113090000D01*
X218440000Y-100270000D02*
X219770000Y-100270000D01*
%TO.C,R1*%
X108490000Y-92610000D02*
X108490000Y-95350000D01*
X105180000Y-93980000D02*
X108490000Y-93980000D01*
X108490000Y-95350000D02*
X115030000Y-95350000D01*
X115030000Y-92610000D02*
X108490000Y-92610000D01*
X115030000Y-95350000D02*
X115030000Y-92610000D01*
X118340000Y-93980000D02*
X115030000Y-93980000D01*
%TO.C,G\u002A\u002A\u002A*%
G36*
X153102466Y-126501619D02*
G01*
X153105317Y-126437322D01*
X153110700Y-126385446D01*
X153119418Y-126338922D01*
X153132272Y-126290686D01*
X153150065Y-126233669D01*
X153155562Y-126216651D01*
X153246947Y-125984689D01*
X153363497Y-125774550D01*
X153504380Y-125587086D01*
X153668766Y-125423149D01*
X153855824Y-125283591D01*
X154064722Y-125169264D01*
X154249107Y-125095828D01*
X154336860Y-125071047D01*
X154443918Y-125048079D01*
X154555969Y-125029450D01*
X154658707Y-125017683D01*
X154707181Y-125015023D01*
X154711319Y-124999025D01*
X154714886Y-124954873D01*
X154717642Y-124888033D01*
X154719345Y-124803971D01*
X154719788Y-124728961D01*
X154719788Y-124443190D01*
X149895301Y-124443190D01*
X149895301Y-124728961D01*
X149896003Y-124822766D01*
X149897947Y-124903667D01*
X149900893Y-124966200D01*
X149904600Y-125004898D01*
X149907909Y-125015023D01*
X149999072Y-125021803D01*
X150107626Y-125036870D01*
X150219261Y-125057699D01*
X150319669Y-125081766D01*
X150365983Y-125095828D01*
X150591939Y-125189123D01*
X150796728Y-125308337D01*
X150979517Y-125452620D01*
X151139475Y-125621119D01*
X151275773Y-125812982D01*
X151387578Y-126027358D01*
X151459528Y-126216651D01*
X151478728Y-126277084D01*
X151492781Y-126326912D01*
X151502490Y-126373201D01*
X151508657Y-126423018D01*
X151512085Y-126483429D01*
X151513577Y-126561502D01*
X151513935Y-126664304D01*
X151513941Y-126695738D01*
X151513746Y-126806074D01*
X151512624Y-126889857D01*
X151509772Y-126954154D01*
X151504389Y-127006030D01*
X151495672Y-127052553D01*
X151482818Y-127100790D01*
X151465024Y-127157807D01*
X151459528Y-127174825D01*
X151368171Y-127406592D01*
X151251554Y-127616689D01*
X151110559Y-127804210D01*
X150946067Y-127968252D01*
X150758960Y-128107911D01*
X150550120Y-128222282D01*
X150365983Y-128295648D01*
X150175069Y-128344571D01*
X149963637Y-128369479D01*
X149734975Y-128370099D01*
X149598306Y-128359493D01*
X149494760Y-128341971D01*
X149375571Y-128311313D01*
X149254005Y-128271542D01*
X149143333Y-128226683D01*
X149113634Y-128212532D01*
X148903254Y-128089884D01*
X148716597Y-127943508D01*
X148554148Y-127773975D01*
X148416391Y-127581855D01*
X148303813Y-127367718D01*
X148230214Y-127174825D01*
X148211015Y-127114392D01*
X148196962Y-127064564D01*
X148187253Y-127018275D01*
X148181086Y-126968458D01*
X148177657Y-126908046D01*
X148176165Y-126829973D01*
X148175807Y-126727172D01*
X148175801Y-126695738D01*
X148248442Y-126695738D01*
X148256758Y-126835009D01*
X148280030Y-126984949D01*
X148315745Y-127135822D01*
X148361390Y-127277894D01*
X148414453Y-127401430D01*
X148444723Y-127456059D01*
X148468197Y-127496038D01*
X148481849Y-127522738D01*
X148483256Y-127527314D01*
X148493155Y-127546123D01*
X148519211Y-127583630D01*
X148555963Y-127632786D01*
X148597947Y-127686544D01*
X148639704Y-127737852D01*
X148675770Y-127779663D01*
X148692428Y-127797279D01*
X148841988Y-127932244D01*
X148994512Y-128041502D01*
X149160457Y-128132123D01*
X149241393Y-128168324D01*
X149304623Y-128193636D01*
X149366178Y-128214722D01*
X149434155Y-128233784D01*
X149516651Y-128253023D01*
X149621761Y-128274640D01*
X149659960Y-128282121D01*
X149709774Y-128286712D01*
X149783896Y-128287357D01*
X149873311Y-128284568D01*
X149969004Y-128278856D01*
X150061959Y-128270731D01*
X150143162Y-128260703D01*
X150192099Y-128251986D01*
X150293940Y-128223925D01*
X150410220Y-128182760D01*
X150527308Y-128133892D01*
X150631572Y-128082719D01*
X150660332Y-128066545D01*
X150717478Y-128028898D01*
X150789143Y-127975781D01*
X150865548Y-127914955D01*
X150936909Y-127854184D01*
X150988845Y-127805845D01*
X151017124Y-127774934D01*
X151055308Y-127729602D01*
X151098007Y-127676726D01*
X151139836Y-127623186D01*
X151175406Y-127575858D01*
X151199330Y-127541621D01*
X151206486Y-127527984D01*
X151214527Y-127509277D01*
X151234760Y-127473088D01*
X151245019Y-127456059D01*
X151300993Y-127346294D01*
X151350883Y-127212833D01*
X151392174Y-127065412D01*
X151422353Y-126913765D01*
X151438909Y-126767627D01*
X151441300Y-126695738D01*
X151432984Y-126556467D01*
X151409712Y-126406527D01*
X151373997Y-126255654D01*
X151328352Y-126113582D01*
X151275290Y-125990046D01*
X151245019Y-125935417D01*
X151221529Y-125895267D01*
X151207881Y-125868218D01*
X151206486Y-125863492D01*
X151196592Y-125845668D01*
X151170503Y-125808944D01*
X151133606Y-125760199D01*
X151091288Y-125706310D01*
X151048937Y-125654156D01*
X151011941Y-125610615D01*
X150988845Y-125585631D01*
X150814590Y-125432762D01*
X150628112Y-125309465D01*
X150426621Y-125214410D01*
X150207328Y-125146263D01*
X149983554Y-125105690D01*
X149895301Y-125094451D01*
X149895301Y-126695738D01*
X149794441Y-126695738D01*
X149794441Y-125094451D01*
X149706188Y-125105690D01*
X149473407Y-125148872D01*
X149256793Y-125216473D01*
X149060913Y-125307016D01*
X149029411Y-125324930D01*
X148972265Y-125362577D01*
X148900599Y-125415695D01*
X148824195Y-125476521D01*
X148752833Y-125537292D01*
X148700897Y-125585631D01*
X148672618Y-125616542D01*
X148634435Y-125661874D01*
X148591735Y-125714750D01*
X148549906Y-125768290D01*
X148514336Y-125815618D01*
X148490412Y-125849854D01*
X148483256Y-125863492D01*
X148475215Y-125882199D01*
X148454983Y-125918388D01*
X148444723Y-125935417D01*
X148388749Y-126045182D01*
X148338860Y-126178643D01*
X148297569Y-126326064D01*
X148267389Y-126477711D01*
X148250833Y-126623848D01*
X148248442Y-126695738D01*
X148175801Y-126695738D01*
X148175997Y-126585402D01*
X148177119Y-126501619D01*
X148179970Y-126437322D01*
X148185353Y-126385446D01*
X148194070Y-126338922D01*
X148206924Y-126290686D01*
X148224718Y-126233669D01*
X148230214Y-126216651D01*
X148321599Y-125984689D01*
X148438149Y-125774550D01*
X148579033Y-125587086D01*
X148743419Y-125423149D01*
X148930476Y-125283591D01*
X149139374Y-125169264D01*
X149323759Y-125095828D01*
X149411513Y-125071047D01*
X149518570Y-125048079D01*
X149630622Y-125029450D01*
X149733359Y-125017683D01*
X149781833Y-125015023D01*
X149784838Y-124998868D01*
X149787425Y-124953464D01*
X149789595Y-124883178D01*
X149791347Y-124792379D01*
X149792681Y-124685436D01*
X149793598Y-124566715D01*
X149794097Y-124440586D01*
X149794179Y-124311416D01*
X149793844Y-124183574D01*
X149793090Y-124061428D01*
X149791920Y-123949345D01*
X149790331Y-123851694D01*
X149788326Y-123772844D01*
X149785902Y-123717162D01*
X149783061Y-123689016D01*
X149781833Y-123686446D01*
X149690670Y-123679666D01*
X149582117Y-123664599D01*
X149470481Y-123643770D01*
X149370074Y-123619703D01*
X149323759Y-123605642D01*
X149097803Y-123512347D01*
X148893015Y-123393132D01*
X148710226Y-123248849D01*
X148550267Y-123080350D01*
X148413969Y-122888487D01*
X148302165Y-122674111D01*
X148230214Y-122484818D01*
X148211015Y-122424385D01*
X148196962Y-122374558D01*
X148187253Y-122328269D01*
X148181086Y-122278452D01*
X148177657Y-122218040D01*
X148176165Y-122139967D01*
X148175807Y-122037166D01*
X148175801Y-122005731D01*
X148248442Y-122005731D01*
X148256758Y-122145002D01*
X148280030Y-122294942D01*
X148315745Y-122445815D01*
X148361390Y-122587887D01*
X148414453Y-122711423D01*
X148444723Y-122766052D01*
X148468197Y-122806031D01*
X148481849Y-122832731D01*
X148483256Y-122837307D01*
X148493155Y-122856116D01*
X148519211Y-122893623D01*
X148555963Y-122942780D01*
X148597947Y-122996537D01*
X148639704Y-123047845D01*
X148675770Y-123089656D01*
X148692428Y-123107273D01*
X148756610Y-123166890D01*
X148832942Y-123231814D01*
X148911881Y-123294420D01*
X148983886Y-123347084D01*
X149029411Y-123376539D01*
X149161312Y-123443831D01*
X149310587Y-123503296D01*
X149466287Y-123551523D01*
X149617464Y-123585104D01*
X149748213Y-123600398D01*
X149794441Y-123602687D01*
X149794441Y-122072971D01*
X149895301Y-122072971D01*
X149895301Y-123607018D01*
X149983554Y-123595780D01*
X150216336Y-123552597D01*
X150432949Y-123484996D01*
X150628829Y-123394453D01*
X150660332Y-123376539D01*
X150717478Y-123338892D01*
X150789143Y-123285774D01*
X150865548Y-123224948D01*
X150936909Y-123164177D01*
X150988845Y-123115838D01*
X151017124Y-123084927D01*
X151055308Y-123039595D01*
X151098007Y-122986719D01*
X151139836Y-122933179D01*
X151175406Y-122885851D01*
X151199330Y-122851615D01*
X151206486Y-122837977D01*
X151214527Y-122819271D01*
X151234760Y-122783081D01*
X151245019Y-122766052D01*
X151300993Y-122656287D01*
X151350883Y-122522826D01*
X151392174Y-122375405D01*
X151422353Y-122223759D01*
X151438909Y-122077621D01*
X151441300Y-122005731D01*
X151432984Y-121866460D01*
X151409712Y-121716521D01*
X151373997Y-121565647D01*
X151328352Y-121423576D01*
X151275290Y-121300039D01*
X151245019Y-121245410D01*
X151221529Y-121205261D01*
X151207881Y-121178211D01*
X151206486Y-121173485D01*
X151196592Y-121155661D01*
X151170503Y-121118937D01*
X151133606Y-121070192D01*
X151091288Y-121016303D01*
X151048937Y-120964149D01*
X151011941Y-120920608D01*
X150988845Y-120895625D01*
X150930427Y-120841563D01*
X150858142Y-120780444D01*
X150781769Y-120720029D01*
X150711092Y-120668082D01*
X150660332Y-120634924D01*
X150460924Y-120535250D01*
X150254539Y-120466729D01*
X150037129Y-120428285D01*
X149844871Y-120418448D01*
X149615196Y-120432681D01*
X149399919Y-120476096D01*
X149194988Y-120549768D01*
X149029411Y-120634924D01*
X148972265Y-120672571D01*
X148900599Y-120725688D01*
X148824195Y-120786514D01*
X148752833Y-120847285D01*
X148700897Y-120895625D01*
X148672618Y-120926535D01*
X148634435Y-120971868D01*
X148591735Y-121024743D01*
X148549906Y-121078284D01*
X148514336Y-121125611D01*
X148490412Y-121159848D01*
X148483256Y-121173485D01*
X148475215Y-121192192D01*
X148454983Y-121228381D01*
X148444723Y-121245410D01*
X148388749Y-121355176D01*
X148338860Y-121488636D01*
X148297569Y-121636057D01*
X148267389Y-121787704D01*
X148250833Y-121933842D01*
X148248442Y-122005731D01*
X148175801Y-122005731D01*
X148175997Y-121895395D01*
X148177119Y-121811612D01*
X148179970Y-121747316D01*
X148185353Y-121695439D01*
X148194070Y-121648916D01*
X148206924Y-121600679D01*
X148224718Y-121543662D01*
X148230214Y-121526645D01*
X148321245Y-121296008D01*
X148437065Y-121086925D01*
X148575798Y-120900630D01*
X148735572Y-120738358D01*
X148914510Y-120601343D01*
X149110739Y-120490820D01*
X149322383Y-120408024D01*
X149547569Y-120354189D01*
X149784421Y-120330550D01*
X150031065Y-120338342D01*
X150033984Y-120338623D01*
X150262126Y-120377019D01*
X150478488Y-120445896D01*
X150681035Y-120543559D01*
X150867734Y-120668311D01*
X151036549Y-120818458D01*
X151185445Y-120992303D01*
X151312388Y-121188151D01*
X151415343Y-121404305D01*
X151459528Y-121526645D01*
X151478728Y-121587077D01*
X151492781Y-121636905D01*
X151502490Y-121683194D01*
X151508657Y-121733011D01*
X151512085Y-121793423D01*
X151513577Y-121871496D01*
X151513935Y-121974297D01*
X151513941Y-122005731D01*
X151513746Y-122116067D01*
X151512624Y-122199851D01*
X151509772Y-122264147D01*
X151504389Y-122316024D01*
X151495672Y-122362547D01*
X151482818Y-122410784D01*
X151465024Y-122467800D01*
X151459528Y-122484818D01*
X151368171Y-122716586D01*
X151251554Y-122926682D01*
X151110559Y-123114203D01*
X150946067Y-123278245D01*
X150758960Y-123417904D01*
X150550120Y-123532276D01*
X150365983Y-123605642D01*
X150278229Y-123630423D01*
X150171172Y-123653390D01*
X150059120Y-123672019D01*
X149956383Y-123683786D01*
X149907909Y-123686446D01*
X149904030Y-123702499D01*
X149900636Y-123747068D01*
X149897920Y-123815052D01*
X149896080Y-123901348D01*
X149895312Y-124000854D01*
X149895301Y-124014533D01*
X149895301Y-124342330D01*
X154719788Y-124342330D01*
X154719788Y-124014533D01*
X154719174Y-123913681D01*
X154717463Y-123825374D01*
X154714851Y-123754713D01*
X154711533Y-123706802D01*
X154707707Y-123686742D01*
X154707181Y-123686446D01*
X154616018Y-123679666D01*
X154507464Y-123664599D01*
X154395829Y-123643770D01*
X154295421Y-123619703D01*
X154249107Y-123605642D01*
X154023150Y-123512347D01*
X153818362Y-123393132D01*
X153635573Y-123248849D01*
X153475614Y-123080350D01*
X153339317Y-122888487D01*
X153227512Y-122674111D01*
X153155562Y-122484818D01*
X153136362Y-122424385D01*
X153122309Y-122374558D01*
X153112600Y-122328269D01*
X153106433Y-122278452D01*
X153103005Y-122218040D01*
X153101513Y-122139967D01*
X153101155Y-122037166D01*
X153101148Y-122005731D01*
X153173790Y-122005731D01*
X153182105Y-122145002D01*
X153205377Y-122294942D01*
X153241093Y-122445815D01*
X153286738Y-122587887D01*
X153339800Y-122711423D01*
X153370071Y-122766052D01*
X153393544Y-122806031D01*
X153407196Y-122832731D01*
X153408604Y-122837307D01*
X153418503Y-122856116D01*
X153444559Y-122893623D01*
X153481310Y-122942780D01*
X153523295Y-122996537D01*
X153565051Y-123047845D01*
X153601118Y-123089656D01*
X153617776Y-123107273D01*
X153681957Y-123166890D01*
X153758289Y-123231814D01*
X153837229Y-123294420D01*
X153909234Y-123347084D01*
X153954758Y-123376539D01*
X154086659Y-123443831D01*
X154235934Y-123503296D01*
X154391635Y-123551523D01*
X154542812Y-123585104D01*
X154673561Y-123600398D01*
X154719788Y-123602687D01*
X154719788Y-122072971D01*
X154820649Y-122072971D01*
X154820649Y-123607018D01*
X154908902Y-123595780D01*
X155141683Y-123552597D01*
X155358296Y-123484996D01*
X155554176Y-123394453D01*
X155585679Y-123376539D01*
X155642825Y-123338892D01*
X155714491Y-123285774D01*
X155790895Y-123224948D01*
X155862256Y-123164177D01*
X155914193Y-123115838D01*
X155942472Y-123084927D01*
X155980655Y-123039595D01*
X156023355Y-122986719D01*
X156065183Y-122933179D01*
X156100753Y-122885851D01*
X156124678Y-122851615D01*
X156131833Y-122837977D01*
X156139875Y-122819271D01*
X156160107Y-122783081D01*
X156170367Y-122766052D01*
X156226341Y-122656287D01*
X156276230Y-122522826D01*
X156317521Y-122375405D01*
X156347701Y-122223759D01*
X156364256Y-122077621D01*
X156366647Y-122005731D01*
X156358332Y-121866460D01*
X156335060Y-121716521D01*
X156299345Y-121565647D01*
X156253699Y-121423576D01*
X156200637Y-121300039D01*
X156170367Y-121245410D01*
X156146876Y-121205261D01*
X156133229Y-121178211D01*
X156131833Y-121173485D01*
X156121940Y-121155661D01*
X156095851Y-121118937D01*
X156058954Y-121070192D01*
X156016636Y-121016303D01*
X155974285Y-120964149D01*
X155937288Y-120920608D01*
X155914193Y-120895625D01*
X155855775Y-120841563D01*
X155783489Y-120780444D01*
X155707117Y-120720029D01*
X155636439Y-120668082D01*
X155585679Y-120634924D01*
X155386271Y-120535250D01*
X155179887Y-120466729D01*
X154962477Y-120428285D01*
X154770219Y-120418448D01*
X154540544Y-120432681D01*
X154325266Y-120476096D01*
X154120335Y-120549768D01*
X153954758Y-120634924D01*
X153897612Y-120672571D01*
X153825946Y-120725688D01*
X153749542Y-120786514D01*
X153678181Y-120847285D01*
X153626245Y-120895625D01*
X153597965Y-120926535D01*
X153559782Y-120971868D01*
X153517083Y-121024743D01*
X153475254Y-121078284D01*
X153439684Y-121125611D01*
X153415759Y-121159848D01*
X153408604Y-121173485D01*
X153400563Y-121192192D01*
X153380330Y-121228381D01*
X153370071Y-121245410D01*
X153314096Y-121355176D01*
X153264207Y-121488636D01*
X153222916Y-121636057D01*
X153192736Y-121787704D01*
X153176181Y-121933842D01*
X153173790Y-122005731D01*
X153101148Y-122005731D01*
X153101344Y-121895395D01*
X153102466Y-121811612D01*
X153105317Y-121747316D01*
X153110700Y-121695439D01*
X153119418Y-121648916D01*
X153132272Y-121600679D01*
X153150065Y-121543662D01*
X153155562Y-121526645D01*
X153246593Y-121296008D01*
X153362412Y-121086925D01*
X153501146Y-120900630D01*
X153660919Y-120738358D01*
X153839858Y-120601343D01*
X154036086Y-120490820D01*
X154247731Y-120408024D01*
X154472916Y-120354189D01*
X154709768Y-120330550D01*
X154956412Y-120338342D01*
X154959332Y-120338623D01*
X155187473Y-120377019D01*
X155403835Y-120445896D01*
X155606383Y-120543559D01*
X155793081Y-120668311D01*
X155961896Y-120818458D01*
X156110792Y-120992303D01*
X156237735Y-121188151D01*
X156340691Y-121404305D01*
X156384875Y-121526645D01*
X156404075Y-121587077D01*
X156418128Y-121636905D01*
X156427837Y-121683194D01*
X156434004Y-121733011D01*
X156437432Y-121793423D01*
X156438924Y-121871496D01*
X156439282Y-121974297D01*
X156439289Y-122005731D01*
X156439093Y-122116067D01*
X156437971Y-122199851D01*
X156435120Y-122264147D01*
X156429737Y-122316024D01*
X156421020Y-122362547D01*
X156408166Y-122410784D01*
X156390372Y-122467800D01*
X156384875Y-122484818D01*
X156293519Y-122716586D01*
X156176902Y-122926682D01*
X156035906Y-123114203D01*
X155871414Y-123278245D01*
X155684307Y-123417904D01*
X155475467Y-123532276D01*
X155291330Y-123605642D01*
X155203577Y-123630423D01*
X155096520Y-123653390D01*
X154984468Y-123672019D01*
X154881730Y-123683786D01*
X154833256Y-123686446D01*
X154830490Y-123702724D01*
X154827933Y-123749040D01*
X154825654Y-123821809D01*
X154823721Y-123917450D01*
X154822202Y-124032379D01*
X154821165Y-124163012D01*
X154820678Y-124305768D01*
X154820649Y-124350735D01*
X154820957Y-124496448D01*
X154821835Y-124631121D01*
X154823216Y-124751172D01*
X154825031Y-124853016D01*
X154827212Y-124933072D01*
X154829692Y-124987756D01*
X154832403Y-125013486D01*
X154833256Y-125015023D01*
X154924419Y-125021803D01*
X155032973Y-125036870D01*
X155144608Y-125057699D01*
X155245016Y-125081766D01*
X155291330Y-125095828D01*
X155517287Y-125189123D01*
X155722075Y-125308337D01*
X155904864Y-125452620D01*
X156064823Y-125621119D01*
X156201120Y-125812982D01*
X156312925Y-126027358D01*
X156384875Y-126216651D01*
X156404075Y-126277084D01*
X156418128Y-126326912D01*
X156427837Y-126373201D01*
X156434004Y-126423018D01*
X156437432Y-126483429D01*
X156438924Y-126561502D01*
X156439282Y-126664304D01*
X156439289Y-126695738D01*
X156439093Y-126806074D01*
X156437971Y-126889857D01*
X156435120Y-126954154D01*
X156429737Y-127006030D01*
X156421020Y-127052553D01*
X156408166Y-127100790D01*
X156390372Y-127157807D01*
X156384875Y-127174825D01*
X156295525Y-127400879D01*
X156181075Y-127607602D01*
X156043576Y-127793286D01*
X155885079Y-127956221D01*
X155707636Y-128094699D01*
X155513296Y-128207009D01*
X155304111Y-128291443D01*
X155082132Y-128346292D01*
X154959332Y-128362846D01*
X154712585Y-128371011D01*
X154475608Y-128347731D01*
X154250276Y-128294241D01*
X154038463Y-128211774D01*
X153842045Y-128101567D01*
X153662894Y-127964853D01*
X153502887Y-127802867D01*
X153363898Y-127616845D01*
X153247801Y-127408020D01*
X153156471Y-127177627D01*
X153155562Y-127174825D01*
X153136362Y-127114392D01*
X153122309Y-127064564D01*
X153112600Y-127018275D01*
X153106433Y-126968458D01*
X153103005Y-126908046D01*
X153101513Y-126829973D01*
X153101155Y-126727172D01*
X153101148Y-126695738D01*
X153173790Y-126695738D01*
X153182105Y-126835009D01*
X153205377Y-126984949D01*
X153241093Y-127135822D01*
X153286738Y-127277894D01*
X153339800Y-127401430D01*
X153370071Y-127456059D01*
X153393544Y-127496038D01*
X153407196Y-127522738D01*
X153408604Y-127527314D01*
X153418503Y-127546123D01*
X153444559Y-127583630D01*
X153481310Y-127632786D01*
X153523295Y-127686544D01*
X153565051Y-127737852D01*
X153601118Y-127779663D01*
X153617776Y-127797279D01*
X153767336Y-127932244D01*
X153919859Y-128041502D01*
X154085804Y-128132123D01*
X154166740Y-128168324D01*
X154229971Y-128193636D01*
X154291526Y-128214722D01*
X154359503Y-128233784D01*
X154441998Y-128253023D01*
X154547108Y-128274640D01*
X154585308Y-128282121D01*
X154635121Y-128286712D01*
X154709243Y-128287357D01*
X154798658Y-128284568D01*
X154894351Y-128278856D01*
X154987307Y-128270731D01*
X155068510Y-128260703D01*
X155117447Y-128251986D01*
X155219287Y-128223925D01*
X155335567Y-128182760D01*
X155452655Y-128133892D01*
X155556919Y-128082719D01*
X155585679Y-128066545D01*
X155642825Y-128028898D01*
X155714491Y-127975781D01*
X155790895Y-127914955D01*
X155862256Y-127854184D01*
X155914193Y-127805845D01*
X155942472Y-127774934D01*
X155980655Y-127729602D01*
X156023355Y-127676726D01*
X156065183Y-127623186D01*
X156100753Y-127575858D01*
X156124678Y-127541621D01*
X156131833Y-127527984D01*
X156139875Y-127509277D01*
X156160107Y-127473088D01*
X156170367Y-127456059D01*
X156226341Y-127346294D01*
X156276230Y-127212833D01*
X156317521Y-127065412D01*
X156347701Y-126913765D01*
X156364256Y-126767627D01*
X156366647Y-126695738D01*
X156358332Y-126556467D01*
X156335060Y-126406527D01*
X156299345Y-126255654D01*
X156253699Y-126113582D01*
X156200637Y-125990046D01*
X156170367Y-125935417D01*
X156146876Y-125895267D01*
X156133229Y-125868218D01*
X156131833Y-125863492D01*
X156121940Y-125845668D01*
X156095851Y-125808944D01*
X156058954Y-125760199D01*
X156016636Y-125706310D01*
X155974285Y-125654156D01*
X155937288Y-125610615D01*
X155914193Y-125585631D01*
X155739937Y-125432762D01*
X155553459Y-125309465D01*
X155351968Y-125214410D01*
X155132676Y-125146263D01*
X154908902Y-125105690D01*
X154820649Y-125094451D01*
X154820649Y-126695738D01*
X154719788Y-126695738D01*
X154719788Y-125094451D01*
X154631536Y-125105690D01*
X154398754Y-125148872D01*
X154182141Y-125216473D01*
X153986261Y-125307016D01*
X153954758Y-125324930D01*
X153897612Y-125362577D01*
X153825946Y-125415695D01*
X153749542Y-125476521D01*
X153678181Y-125537292D01*
X153626245Y-125585631D01*
X153597965Y-125616542D01*
X153559782Y-125661874D01*
X153517083Y-125714750D01*
X153475254Y-125768290D01*
X153439684Y-125815618D01*
X153415759Y-125849854D01*
X153408604Y-125863492D01*
X153400563Y-125882199D01*
X153380330Y-125918388D01*
X153370071Y-125935417D01*
X153314096Y-126045182D01*
X153264207Y-126178643D01*
X153222916Y-126326064D01*
X153192736Y-126477711D01*
X153176181Y-126623848D01*
X153173790Y-126695738D01*
X153101148Y-126695738D01*
X153101344Y-126585402D01*
X153102466Y-126501619D01*
G37*
%TD*%
M02*
